<?xml version="1.0" encoding="utf-8"?>
<!-- Generator: Adobe Illustrator 19.2.1, SVG Export Plug-In . SVG Version: 6.00 Build 0)  -->
<svg version="1.1" id="Слой_1" xmlns="http://www.w3.org/2000/svg" xmlns:xlink="http://www.w3.org/1999/xlink" x="0px" y="0px"
	 viewBox="0 0 592.9 308" style="enable-background:new 0 0 592.9 308;" xml:space="preserve">
<g>
	<rect x="131.5" y="187.8" transform="matrix(0.866 -0.5 0.5 0.866 -87.5033 94.5861)" width="2.4" height="45.6"/>
	<rect x="216.2" y="211.9" transform="matrix(0.5883 -0.8087 0.8087 0.5883 -73.9294 281.0503)" width="45.6" height="2.4"/>
	<rect x="75.7" y="268.6" width="34" height="2.4"/>
	<rect x="114.5" y="94.3" transform="matrix(0.5883 -0.8086 0.8086 0.5883 -47.0687 141.8085)" width="2.4" height="45.6"/>
	<rect x="54.4" y="201.9" transform="matrix(0.5 -0.866 0.866 0.5 -141.5978 160.9787)" width="28.4" height="2.4"/>
	<rect x="249.3" y="258.9" transform="matrix(0.951 -0.3093 0.3093 0.951 -67.3956 95.0072)" width="33.4" height="2.4"/>
	<path d="M285.4,194.8L248,182.6l-0.8-0.3l-0.5,0.7l-1.2,1.6l0,0l-32.3,44.5h-56.3l-28.2-48.8l17.6-54.3l0.3-0.8l-0.7-0.5L99.2,90.8
		l-0.7-0.5l-0.7,0.5l-30.2,21.9l1.4,1.9L97.6,94l0,0l0.9-0.7l0.9,0.7l0,0l43.4,31.5l0,0l0.9,0.7l-0.3,1.1l0,0l-16.9,52H70.6
		L59.5,145l-2.3,0.7l11.2,34.6l-16.9,29.3l2.1,1.2l16.8-29.2h56.2l28.1,48.7l-16.8,29.2l2.1,1.2l16.8-29.2h56.3l32.3,44.5l0,0
		l1.2,1.6l0.5,0.7l0.8-0.3l37.4-12.2l-0.7-2.3l-35.5,11.5l0,0l-1.1,0.3l-32.8-45.2l32.8-45.2l1.1,0.3l0,0l35.5,11.5L285.4,194.8z
		 M69.7,180.5L69.7,180.5L69.7,180.5L69.7,180.5z"/>
	<rect x="301.2" y="221.6" width="2.4" height="16.6"/>
	<rect x="311.5" y="48.8" width="2.4" height="37.6"/>
	<rect x="290.8" y="48.8" width="2.4" height="37.6"/>
	<rect x="451.4" y="171.5" width="31.6" height="2.4"/>
	<rect x="503.3" y="134" width="2.4" height="18.8"/>
	<rect x="492.9" y="134" width="2.4" height="18.8"/>
	<rect x="503.3" y="192.2" width="2.4" height="16.9"/>
	<rect x="492.9" y="192.2" width="2.4" height="16.9"/>
	<polygon points="576.7,122.3 548.2,171.5 546.9,171.5 516.1,171.5 516.1,173.9 546.9,173.9 548.9,173.9 549.6,173.9 549.9,173.3 
		578.7,123.4 	"/>
	<polygon points="135.1,287.8 134.9,287.8 119.5,265.7 116.1,265.7 116.1,293.8 119.6,293.8 119.6,271.8 119.7,271.8 135.2,293.8 
		138.6,293.8 138.6,265.7 135.1,265.7 	"/>
	<polygon points="70.4,279 69.8,277.9 69.8,277.9 53,248.9 51,250.1 68.7,280.8 69,281.4 69.7,281.4 71.7,281.4 109.7,281.4 
		109.7,279 71.7,279 	"/>
	<polygon points="44.2,117.2 44.3,117.2 59.8,139.3 63.2,139.3 63.2,111.1 59.7,111.1 59.7,133.2 59.5,133.2 44.1,111.1 40.7,111.1 
		40.7,139.3 44.2,139.3 	"/>
	<polygon points="33.2,139.3 36.7,139.3 36.7,111.1 33.2,111.1 33.2,123.3 17.7,123.3 17.7,111.1 14.2,111.1 14.2,139.3 17.7,139.3 
		17.7,126.5 33.2,126.5 	"/>
	<polygon points="52.2,215.8 48.7,215.8 48.7,237.9 48.5,237.9 33.1,215.8 29.7,215.8 29.7,244 33.2,244 33.2,221.9 33.3,221.9 
		48.8,244 52.2,244 	"/>
	<polygon points="310.1,266.7 310,266.7 294.5,244.6 291.1,244.6 291.1,272.8 294.6,272.8 294.6,250.7 294.8,250.7 310.2,272.8 
		313.6,272.8 313.6,244.6 310.1,244.6 	"/>
	<polygon points="310.1,209.1 310,209.1 294.5,187 291.1,187 291.1,215.2 294.6,215.2 294.6,193.1 294.8,193.1 310.2,215.2 
		313.6,215.2 313.6,187 310.1,187 	"/>
	<polygon points="392.4,134.3 393,133.7 393.5,134.3 393.5,134.3 417.1,157.8 418.8,156.1 393.8,131.2 393,130.3 392.1,131.2 
		352,171.2 303.6,143.2 303.6,86.3 303.6,48.8 301.2,48.8 301.2,86.3 301.2,141.9 301.2,141.9 301.2,143.9 301.2,144.6 301.8,145 
		303.5,146 303.5,146 349.8,172.7 318.6,190.8 319.8,192.9 352,174.2 392.1,214.3 393,215.2 393.8,214.3 395.2,212.9 418.8,189.4 
		417.1,187.7 393.5,211.2 393.5,211.2 393,211.8 353.9,172.7 392.4,134.3 	"/>
	<polygon points="441.5,180.3 441.3,180.3 425.9,158.2 422.5,158.2 422.5,186.4 425.9,186.4 425.9,164.3 426.1,164.3 441.5,186.4 
		445,186.4 445,158.2 441.5,158.2 	"/>
	<polygon points="294.6,20.3 294.8,20.3 310.2,42.4 313.6,42.4 313.6,14.2 310.1,14.2 310.1,36.3 310,36.3 294.5,14.2 291.1,14.2 
		291.1,42.4 294.6,42.4 	"/>
	<path d="M499.6,183.9c-4,0-6.9-2-7.2-5.1h-3.5c0.3,5,4.5,8.2,10.4,8.2c6.5,0,10.5-3.2,10.5-8.4c0-4-2.4-6.3-8.2-7.8l-2.9-0.8
		c-3.8-1-5.4-2.3-5.4-4.4c0-2.8,2.5-4.6,6.2-4.6c3.7,0,6.1,1.9,6.4,4.9h3.5c-0.2-4.7-4.2-8-9.8-8c-5.9,0-10,3.3-10,8
		c0,3.8,2.3,6.1,7.5,7.4l3.6,0.9c3.8,1,5.4,2.4,5.4,4.8C506.2,181.9,503.4,183.9,499.6,183.9z"/>
	<path d="M499.3,100.3c-8,0-13,5.6-13,14.6c0,8.9,5,14.6,13,14.6s13-5.6,13-14.6C512.3,106,507.3,100.3,499.3,100.3z M499.3,126.2
		c-5.8,0-9.4-4.4-9.4-11.3c0-7,3.6-11.3,9.4-11.3s9.4,4.4,9.4,11.3C508.7,121.8,505.1,126.2,499.3,126.2z"/>
	<path d="M499.3,215.5c-8,0-13,5.6-13,14.6s5,14.6,13,14.6s13-5.6,13-14.6S507.3,215.5,499.3,215.5z M499.3,241.4
		c-5.8,0-9.4-4.4-9.4-11.3c0-7,3.6-11.3,9.4-11.3s9.4,4.4,9.4,11.3C508.7,237,505.1,241.4,499.3,241.4z"/>
</g>
</svg>
