<?xml version="1.0" encoding="UTF-8"?>
<svg width="216pt" xmlns:xlink="http://www.w3.org/1999/xlink" xmlns="http://www.w3.org/2000/svg" height="160pt" viewBox="0 0 216 160" >
 <g transform="translate(2, 73.1504)" style="fill:#161413; fill-rule:nonzero; stroke:none; stroke-width:1.2; stroke-linecap:butt; stroke-linejoin:miter; stroke-dasharray:none;" >
  <path d="M9.7002 27.5496 C9.7002 27.5496 8.75 28.5996 8.75 28.5996 C8.75 28.5996 0 0 0 0 C0 0 1.40039 0.2998 1.40039 0.2998 C1.40039 0.2998 9.7002 27.5496 9.7002 27.5496 Z" />
 </g>
 <g transform="translate(8.0498, 74.4502)" style="fill:#161413; fill-rule:nonzero; stroke:none; stroke-width:1.2; stroke-linecap:butt; stroke-linejoin:miter; stroke-dasharray:none;" >
  <path d="M7.9004 22.1494 C7.9004 22.1494 6.75 22.5 6.75 22.5 C6.75 22.5 0 0.3994 0 0.3994 C0 0.3994 1.1504 0 1.1504 0 C1.1504 0 7.9004 22.1494 7.9004 22.1494 Z" />
 </g>
 <g transform="translate(10.75, 100.7)" style="fill:#161413; fill-rule:nonzero; stroke:none; stroke-width:1.2; stroke-linecap:butt; stroke-linejoin:miter; stroke-dasharray:none;" >
  <path d="M28.75 6.4 C28.75 6.4 28.9502 7.1 28.9502 7.1 C28.9502 7.1 28.5498 7.6 28.5498 7.6 C28.5498 7.6 0 1.05 0 1.05 C0 1.05 0.9502 0 0.9502 0 C0.9502 0 28.75 6.4 28.75 6.4 Z" />
 </g>
 <g transform="translate(39.5, 86.25)" style="fill:#161413; fill-rule:nonzero; stroke:none; stroke-width:1.2; stroke-linecap:butt; stroke-linejoin:miter; stroke-dasharray:none;" >
  <path d="M19.4004 0 C19.4004 0 20.0996 0.1504 20.0996 0.1504 C20.0996 0.1504 20.25 0.9004 20.25 0.9004 C20.25 0.9004 0.9502 21.6 0.9502 21.6 C0.9502 21.6 0.2002 21.55 0.2002 21.55 C0.2002 21.55 0 20.85 0 20.85 C0 20.85 19.4004 0 19.4004 0 Z" />
 </g>
 <g transform="translate(37.4502, 84.6504)" style="fill:#161413; fill-rule:nonzero; stroke:none; stroke-width:1.2; stroke-linecap:butt; stroke-linejoin:miter; stroke-dasharray:none;" >
  <path d="M15.7998 0 C15.7998 0 16.7002 0.7998 16.7002 0.7998 C16.7002 0.7998 0.8994 17.7496 0.8994 17.7496 C0.8994 17.7496 0 16.8996 0 16.8996 C0 16.8996 15.7998 0 15.7998 0 Z" />
 </g>
 <g transform="translate(50.5996, 58)" style="fill:#161413; fill-rule:nonzero; stroke:none; stroke-width:1.2; stroke-linecap:butt; stroke-linejoin:miter; stroke-dasharray:none;" >
  <path d="M0 1 C0 1 0.9502 0 0.9502 0 C0.9502 0 9.5 28 9.5 28 C9.5 28 9 28.4004 9 28.4004 C9 28.4004 8.3008 28.25 8.3008 28.25 C8.3008 28.25 0 1 0 1 Z" />
 </g>
 <g transform="translate(22.5996, 51.4004)" style="fill:#161413; fill-rule:nonzero; stroke:none; stroke-width:1.2; stroke-linecap:butt; stroke-linejoin:miter; stroke-dasharray:none;" >
  <path d="M0.2002 1.1992 C0.2002 1.1992 0 0.5498 0 0.5498 C0 0.5498 0.5 0 0.5 0 C0.5 0 28.9502 6.5996 28.9502 6.5996 C28.9502 6.5996 28 7.5996 28 7.5996 C28 7.5996 0.2002 1.1992 0.2002 1.1992 Z" />
 </g>
 <g transform="translate(24.25, 57.1504)" style="fill:#161413; fill-rule:nonzero; stroke:none; stroke-width:1.2; stroke-linecap:butt; stroke-linejoin:miter; stroke-dasharray:none;" >
  <path d="M0 1.1494 C0 1.1494 0.2998 0 0.2998 0 C0.2998 0 22.7998 5.1992 22.7998 5.1992 C22.7998 5.1992 22.5498 6.3994 22.5498 6.3994 C22.5498 6.3994 0 1.1494 0 1.1494 Z" />
 </g>
 <g transform="translate(2, 51.75)" style="fill:#161413; fill-rule:nonzero; stroke:none; stroke-width:1.2; stroke-linecap:butt; stroke-linejoin:miter; stroke-dasharray:none;" >
  <path d="M1.40039 21.7002 C1.40039 21.7002 0 21.4004 0 21.4004 C0 21.4004 19.9502 0 19.9502 0 C19.9502 0 20.5996 0.2002 20.5996 0.2002 C20.5996 0.2002 20.7998 0.8496 20.7998 0.8496 C20.7998 0.8496 1.40039 21.7002 1.40039 21.7002 Z" />
 </g>
 <g transform="translate(48.041, 126.466)" style="fill:#161413; fill-rule:evenodd; stroke:none; stroke-width:1.2; stroke-linecap:butt; stroke-linejoin:miter; stroke-dasharray:none;" >
  <path d="M11.5596 0 C11.5596 0 9.7754 0 9.7754 0 C9.7754 0 9.7754 12.087 9.7754 12.087 C9.7754 12.087 2.0488 0 2.0488 0 C2.0488 0 0 0 0 0 C0 0 0 14.784 0 14.784 C0 14.784 1.7852 14.784 1.7852 14.784 C1.7852 14.784 1.7852 2.799 1.7852 2.799 C1.7852 2.799 9.4307 14.784 9.4307 14.784 C9.4307 14.784 11.5596 14.784 11.5596 14.784 C11.5596 14.784 11.5596 0 11.5596 0 Z" />
 </g>
 <g transform="translate(39.2998, 107.8)" style="fill:#161413; fill-rule:nonzero; stroke:none; stroke-width:1.2; stroke-linecap:butt; stroke-linejoin:miter; stroke-dasharray:none;" >
  <path d="M9.4004 14.95 C9.4004 14.95 8.2998 15.55 8.2998 15.55 C8.2998 15.55 0 0.5 0 0.5 C0 0.5 0.4004 0 0.4004 0 C0.4004 0 1.1504 0.05 1.1504 0.05 C1.1504 0.05 9.4004 14.95 9.4004 14.95 Z" />
 </g>
 <g transform="translate(63.2998, 127.25)" style="fill:#161413; fill-rule:nonzero; stroke:none; stroke-width:1.2; stroke-linecap:butt; stroke-linejoin:miter; stroke-dasharray:none;" >
  <path d="M18.6504 0 C18.6504 0 19.75 1 19.75 1 C19.75 1 0.25 4.8 0.25 4.8 C0.25 4.8 0 3.6 0 3.6 C0 3.6 18.6504 0 18.6504 0 Z" />
 </g>
 <g transform="translate(81.9502, 98.75)" style="fill:#161413; fill-rule:nonzero; stroke:none; stroke-width:1.2; stroke-linecap:butt; stroke-linejoin:miter; stroke-dasharray:none;" >
  <path d="M3.4502 0.4004 C3.4502 0.4004 4.1494 0 4.1494 0 C4.1494 0 4.7002 0.4004 4.7002 0.4004 C4.7002 0.4004 1.0996 29.5 1.0996 29.5 C1.0996 29.5 0 28.5 0 28.5 C0 28.5 3.4502 0.4004 3.4502 0.4004 Z" />
 </g>
 <g transform="translate(77.1504, 101.85)" style="fill:#161413; fill-rule:nonzero; stroke:none; stroke-width:1.2; stroke-linecap:butt; stroke-linejoin:miter; stroke-dasharray:none;" >
  <path d="M2.6494 0 C2.6494 0 3.8496 0.15 3.8496 0.15 C3.8496 0.15 1.1992 21.55 1.1992 21.55 C1.1992 21.55 0 21.4 0 21.4 C0 21.4 2.6494 0 2.6494 0 Z" />
 </g>
 <g transform="translate(59.5996, 86)" style="fill:#161413; fill-rule:nonzero; stroke:none; stroke-width:1.2; stroke-linecap:butt; stroke-linejoin:miter; stroke-dasharray:none;" >
  <path d="M0.1504 1.1504 C0.1504 1.1504 0 0.4004 0 0.4004 C0 0.4004 0.5 0 0.5 0 C0.5 0 26.4502 12.0996 26.4502 12.0996 C26.4502 12.0996 26.5 12.75 26.5 12.75 C26.5 12.75 25.8008 13.1504 25.8008 13.1504 C25.8008 13.1504 0.1504 1.1504 0.1504 1.1504 Z" />
 </g>
 <g transform="translate(86.0498, 83.9004)" style="fill:#161413; fill-rule:nonzero; stroke:none; stroke-width:1.2; stroke-linecap:butt; stroke-linejoin:miter; stroke-dasharray:none;" >
  <path d="M25.6002 0 C25.6002 0 25.5502 1.3994 25.5502 1.3994 C25.5502 1.3994 0.6006 15.25 0.6006 15.25 C0.6006 15.25 0.0498 14.8496 0.0498 14.8496 C0.0498 14.8496 0 14.1992 0 14.1992 C0 14.1992 25.6002 0 25.6002 0 Z" />
 </g>
 <g transform="translate(111.6, 83.9004)" style="fill:#161413; fill-rule:nonzero; stroke:none; stroke-width:1.2; stroke-linecap:butt; stroke-linejoin:miter; stroke-dasharray:none;" >
  <path d="M25.05 15.0498 C25.05 15.0498 25.05 16.4496 25.05 16.4496 C25.05 16.4496 0 1.3994 0 1.3994 C0 1.3994 0.05 0 0.05 0 C0.05 0 25.05 15.0498 25.05 15.0498 Z" />
 </g>
 <g transform="translate(156.684, 61.7158)" style="fill:#161413; fill-rule:evenodd; stroke:none; stroke-width:1.2; stroke-linecap:butt; stroke-linejoin:miter; stroke-dasharray:none;" >
  <path d="M9.49 8.0508 C9.49 8.0508 9.49 14.7842 9.49 14.7842 C9.49 14.7842 11.377 14.7842 11.377 14.7842 C11.377 14.7842 11.377 0 11.377 0 C11.377 0 9.49 0 9.49 0 C9.49 0 9.49 6.3887 9.49 6.3887 C9.49 6.3887 1.885 6.3887 1.885 6.3887 C1.885 6.3887 1.885 0 1.885 0 C1.885 0 0 0 0 0 C0 0 0 14.7842 0 14.7842 C0 14.7842 1.906 14.7842 1.906 14.7842 C1.906 14.7842 1.906 8.0508 1.906 8.0508 C1.906 8.0508 9.49 8.0508 9.49 8.0508 Z" />
 </g>
 <g transform="translate(156.541, 78.7158)" style="fill:#161413; fill-rule:evenodd; stroke:none; stroke-width:1.2; stroke-linecap:butt; stroke-linejoin:miter; stroke-dasharray:none;" >
  <path d="M11.56 0 C11.56 0 9.775 0 9.775 0 C9.775 0 9.775 12.0869 9.775 12.0869 C9.775 12.0869 2.049 0 2.049 0 C2.049 0 0 0 0 0 C0 0 0 14.7842 0 14.7842 C0 14.7842 1.785 14.7842 1.785 14.7842 C1.785 14.7842 1.785 2.7988 1.785 2.7988 C1.785 2.7988 9.431 14.7842 9.431 14.7842 C9.431 14.7842 11.56 14.7842 11.56 14.7842 C11.56 14.7842 11.56 0 11.56 0 Z" />
 </g>
 <g transform="translate(136.65, 90.75)" style="fill:#161413; fill-rule:nonzero; stroke:none; stroke-width:1.2; stroke-linecap:butt; stroke-linejoin:miter; stroke-dasharray:none;" >
  <path d="M14.8 0 C14.8 0 15.35 1.0996 15.35 1.0996 C15.35 1.0996 0 9.6 0 9.6 C0 9.6 0 8.2002 0 8.2002 C0 8.2002 14.8 0 14.8 0 Z" />
 </g>
 <g transform="translate(172.3, 91.25)" style="fill:#161413; fill-rule:nonzero; stroke:none; stroke-width:1.2; stroke-linecap:butt; stroke-linejoin:miter; stroke-dasharray:none;" >
  <path d="M14.95 8.5996 C14.95 8.5996 14.9 10 14.9 10 C14.9 10 0 1 0 1 C0 1 0.6 0 0.6 0 C0.6 0 14.95 8.5996 14.95 8.5996 Z" />
 </g>
 <g transform="translate(187.2, 85.8496)" style="fill:#161413; fill-rule:nonzero; stroke:none; stroke-width:1.2; stroke-linecap:butt; stroke-linejoin:miter; stroke-dasharray:none;" >
  <path d="M25.25 0 C25.25 0 25.85 1.0508 25.85 1.0508 C25.85 1.0508 0 15.4004 0 15.4004 C0 15.4004 0.05 14 0.05 14 C0.05 14 25.25 0 25.25 0 Z" />
 </g>
 <g transform="translate(179.521, 122.723)" style="fill:#161413; fill-rule:evenodd; stroke:none; stroke-width:1.2; stroke-linecap:butt; stroke-linejoin:miter; stroke-dasharray:none;" >
  <path d="M7.118 0 C2.879 0 0 3.123 0 7.747 C0 12.371 2.879 15.494 7.138 15.494 C8.922 15.494 10.525 14.946 11.721 13.932 C13.324 12.573 14.277 10.282 14.277 7.868 C14.277 3.102 11.458 0 7.118 0 Z M7.118 1.663 C10.322 1.663 12.391 4.096 12.391 7.828 C12.391 11.397 10.261 13.831 7.138 13.831 C3.995 13.831 1.885 11.397 1.885 7.747 C1.885 4.096 3.995 1.663 7.118 1.663 Z" />
 </g>
 <g transform="translate(188.75, 99.0498)" style="fill:#161413; fill-rule:nonzero; stroke:none; stroke-width:1.2; stroke-linecap:butt; stroke-linejoin:miter; stroke-dasharray:none;" >
  <path d="M1.2 20.7002 C1.2 20.7002 0 20.7002 0 20.7002 C0 20.7002 0.55 0 0.55 0 C0.55 0 1.75 0 1.75 0 C1.75 0 1.2 20.7002 1.2 20.7002 Z" />
 </g>
 <g transform="translate(183.5, 98.9502)" style="fill:#161413; fill-rule:nonzero; stroke:none; stroke-width:1.2; stroke-linecap:butt; stroke-linejoin:miter; stroke-dasharray:none;" >
  <path d="M1.2 20.7498 C1.2 20.7498 0 20.6998 0 20.6998 C0 20.6998 0.55 0 0.55 0 C0.55 0 1.75 0.0498 1.75 0.0498 C1.75 0.0498 1.2 20.7498 1.2 20.7498 Z" />
 </g>
 <g transform="translate(7.02051, 16.9727)" style="fill:#161413; fill-rule:evenodd; stroke:none; stroke-width:1.2; stroke-linecap:butt; stroke-linejoin:miter; stroke-dasharray:none;" >
  <path d="M7.11819 0 C2.87988 0 0 3.123 0 7.747 C0 12.3711 2.87988 15.4941 7.13869 15.4941 C8.92289 15.4941 10.5254 14.9462 11.7217 13.9326 C13.3242 12.5732 14.2774 10.2822 14.2774 7.8681 C14.2774 3.1025 11.458 0 7.11819 0 Z M7.11819 1.663 C10.3223 1.663 12.3916 4.0966 12.3916 7.8281 C12.3916 11.3974 10.2617 13.831 7.13869 13.831 C3.99509 13.831 1.88574 11.3974 1.88574 7.747 C1.88574 4.0966 3.99509 1.663 7.11819 1.663 Z" />
 </g>
 <g transform="translate(16.8496, 34.75)" style="fill:#161413; fill-rule:nonzero; stroke:none; stroke-width:1.2; stroke-linecap:butt; stroke-linejoin:miter; stroke-dasharray:none;" >
  <path d="M0 0.3496 C0 0.3496 1.1504 0 1.1504 0 C1.1504 0 6.25 16.6504 6.25 16.6504 C6.25 16.6504 5.75 17.2002 5.75 17.2002 C5.75 17.2002 5.1006 17 5.1006 17 C5.1006 17 0 0.3496 0 0.3496 Z" />
 </g>
 <g transform="translate(20.5498, 2.25)" style="fill:#161413; fill-rule:nonzero; stroke:none; stroke-width:1.2; stroke-linecap:butt; stroke-linejoin:miter; stroke-dasharray:none;" >
  <path d="M13 0 C13 0 13.9004 0.7998 13.9004 0.7998 C13.9004 0.7998 0.9004 14.75 0.9004 14.75 C0.9004 14.75 0 13.9004 0 13.9004 C0 13.9004 13 0 13 0 Z" />
 </g>
 <g transform="translate(48.1836, 142.716)" style="fill:#161413; fill-rule:evenodd; stroke:none; stroke-width:1.2; stroke-linecap:butt; stroke-linejoin:miter; stroke-dasharray:none;" >
  <path d="M9.4902 8.051 C9.4902 8.051 9.4902 14.784 9.4902 14.784 C9.4902 14.784 11.3769 14.784 11.3769 14.784 C11.3769 14.784 11.3769 0 11.3769 0 C11.3769 0 9.4902 0 9.4902 0 C9.4902 0 9.4902 6.388 9.4902 6.388 C9.4902 6.388 1.8857 6.388 1.8857 6.388 C1.8857 6.388 1.8857 0 1.8857 0 C1.8857 0 0 0 0 0 C0 0 0 14.784 0 14.784 C0 14.784 1.9062 14.784 1.9062 14.784 C1.9062 14.784 1.9062 8.051 1.9062 8.051 C1.9062 8.051 9.4902 8.051 9.4902 8.051 Z" />
 </g>
</svg>
