<?xml version="1.0" encoding="UTF-8" standalone="no"?>
<!-- Created with Inkscape (http://www.inkscape.org/) -->
<svg xmlns:svg="http://www.w3.org/2000/svg" xmlns="http://www.w3.org/2000/svg" xmlns:xlink="http://www.w3.org/1999/xlink" version="1.2" width="420" height="583" id="svg2">
  <defs id="defs6"/>
  <path d="m 130.625,21.09375 c -3.62708,54.432735 -7.41272,155.74113 -1.875,216.15625 2.42344,26.43916 -2.99156,52.6833 -13.09375,78.65625 -1.10897,55.63509 -2.37017,91.19277 -2.625,129.6875 -3.09633,14.22335 -5.87474,27.02254 -9.0625,34.875 -3.92168,9.66031 -8.565524,9.93573 -7.15625,16.71875 1.486449,7.15449 6.24888,12.09263 10.84375,16.6875 1.74771,1.29266 3.53179,2.5753 5.375,3.84375 l 0,-2.15625 c -0.77,-0.55889 -1.52975,-1.12428 -2.28125,-1.6875 10.29599,-10.65285 16.37333,-34.07209 24.1875,-53.15625 0.11899,-10.68734 0.0547,-21.28738 -0.0625,-31.875 -7.09957,-0.67109 -8.17987,-6.10136 -4.65625,-13.03125 -3.10648,-25.13329 4.47663,-77.3017 8.375,-108.25 15.42958,-82.63516 6.89003,-167.0799 8.53125,-250.75 0.25598,-4.718043 1.11409,-9.244587 2.4375,-13.46875 l 0,-6.59375 c -2.83167,5.949496 -4.66259,12.788332 -5.0625,20.0625 -0.0219,1.102335 0.41637,-20.423535 2.21875,-29.96875 l -16.09375,-5.75 z" id="path3608" style="font-size:30px;color:#000000;fill:#9b8141;fill-opacity:1;stroke:none;stroke-width:2px;marker:none;visibility:visible;display:inline;overflow:visible;enable-background:accumulate"/>
  <path d="m 160.01973,543.43069 c 22.34748,8.82913 23.68872,0.94618 37.17069,5.78625 129.09231,27.35884 145.85773,-21.97297 145.87019,-75.82827 0.0108,-46.77576 -5.55769,-51.20323 -7.66783,-70.96434 -1.24282,-11.6388 2.41324,-15.01514 -0.0563,-29.39929 -2.46952,-14.38415 -29.77436,-46.1593 -62.36404,-106.84601 C 240.38278,205.49232 218.90491,116.2472 207.50847,37.672669 185.45402,-5.7623042 146.55509,19.706596 144.51483,56.817796 c -1.66304,83.670104 6.98848,168.104244 -8.64619,250.739404 -3.95018,30.9483 -11.63511,83.10755 -8.48734,108.24084 -3.57045,6.92989 -2.47821,12.36529 4.71573,13.03638 0.11877,10.58762 0.18664,21.19646 0.0661,31.8838 -7.91804,19.08416 -14.07755,42.49803 -24.51039,53.15088 15.163,11.21503 34.18368,21.61222 52.36699,29.56159 z" id="path2818" style="font-size:30px;color:#000000;fill:#419a22;fill-opacity:1;stroke:none;stroke-width:2px;marker:none;visibility:visible;display:inline;overflow:visible;enable-background:accumulate"/>
  <path d="m 87.339672,248.05236 c -0.806834,-3.12585 9.139388,-15.18914 35.154218,-20.96152 26.01483,-5.77238 132.93495,-0.68185 165.72703,7.20552 32.79208,7.8874 40.15741,15.39124 39.0845,17.24959 -1.07292,1.85834 -65.74985,-11.41299 -131.66455,-12.44591 -65.9147,-1.03291 -107.494364,12.07817 -108.301198,8.95232 z" id="path3630" style="font-size:30px;color:#000000;fill:#33a8cb;fill-opacity:1;stroke:none;stroke-width:2px;marker:none;visibility:visible;display:inline;overflow:visible;enable-background:accumulate"/>
  <g transform="translate(45.887669,265.00356)" id="g3845" style="font-size:30px">
    <use transform="translate(26.333252,-441.10591)" id="use3799" style="font-size:30px" x="0" y="0" width="420" height="583" xlink:href="#path3711"/>
    <use transform="translate(30.062588,-443.59044)" id="use3805" style="font-size:30px" x="0" y="0" width="420" height="583" xlink:href="#path3711"/>
    <use transform="translate(35.167304,-444.84661)" id="use3807" style="font-size:30px" x="0" y="0" width="420" height="583" xlink:href="#path3711"/>
    <use transform="translate(37.495549,-434.15886)" id="use3993" style="font-size:30px" x="0" y="0" width="420" height="583" xlink:href="#path3711"/>
    <use transform="translate(35.631823,-430.79507)" id="use3801" style="font-size:30px" x="0" y="0" width="420" height="583" xlink:href="#path3711"/>
    <use transform="translate(32.695082,-435.30415)" id="use3809" style="font-size:30px" x="0" y="0" width="420" height="583" xlink:href="#path3711"/>
    <use transform="translate(27.896886,-432.75018)" id="use3811" style="font-size:30px" x="0" y="0" width="420" height="583" xlink:href="#path3711"/>
    <use transform="translate(25.055684,-430.02309)" id="use3833" style="font-size:30px" x="0" y="0" width="420" height="583" xlink:href="#path3711"/>
    <use transform="translate(33.008971,-424.2406)" id="use3995" style="font-size:30px" x="0" y="0" width="420" height="583" xlink:href="#path3711"/>
    <use transform="translate(37.551354,-421.11201)" id="use4027" style="font-size:30px" x="0" y="0" width="420" height="583" xlink:href="#path3711"/>
    <use transform="translate(27.28667,-418.89693)" id="use4033" style="font-size:30px" x="0" y="0" width="420" height="583" xlink:href="#path3711"/>
  </g>
  <use transform="translate(-158.90568,-294.64762)" id="use3997" style="font-size:30px" x="0" y="0" width="420" height="583" xlink:href="#g3845"/>
  <use transform="translate(-4.0479962,-9.1390782)" id="use3795" style="font-size:30px" x="0" y="0" width="420" height="583" xlink:href="#path3711"/>
  <path d="m 294.69389,546.09931 c -14.48344,0.67503 -38.75319,-7.00205 -38.85941,-14.66764 -0.10622,-7.66559 20.37729,-0.8056 35.04793,-4.63188 14.67065,-3.82629 36.48755,-34.63712 40.62493,-30.84178 4.13738,3.79533 -22.33001,49.46627 -36.81345,50.1413 z" id="path3616" style="font-size:30px;color:#000000;fill:#d8c263;fill-opacity:1;stroke:#1c4400;stroke-width:1;stroke-linecap:butt;stroke-linejoin:miter;stroke-miterlimit:4;stroke-opacity:1;stroke-dasharray:none;stroke-dashoffset:0;marker:none;visibility:visible;display:inline;overflow:visible;enable-background:accumulate"/>
  <path d="m 260.32889,416.22438 c 14.16517,0.75356 39.58205,8.07557 39.95116,15.32269 0.36911,7.24712 -21.46904,0.15055 -36.13968,3.97683 -14.67065,3.82629 -36.48755,34.63712 -40.62493,30.84178 -4.13738,-3.79533 22.64828,-50.89486 36.81345,-50.1413 z" id="path3622" style="font-size:30px;color:#000000;fill:#d8c263;fill-opacity:1;stroke:#1c4400;stroke-width:1;stroke-linecap:butt;stroke-linejoin:miter;stroke-miterlimit:4;stroke-opacity:1;stroke-dasharray:none;stroke-dashoffset:0;marker:none;visibility:visible;display:inline;overflow:visible;enable-background:accumulate"/>
  <path d="m 226.85032,304.15696 c -2.43005,-10.88343 -9.20398,-33.98317 2.65844,-39.07776 11.86242,-5.09458 22.91385,-0.45998 24.56862,2.40616 2.69029,4.65972 -1.27652,12.44758 6.92021,22.37936 8.19673,9.93178 17.64271,22.23202 17.82781,33.95146 0.11216,7.10135 -1.23579,9.79449 -13.18793,16.28084 -11.95214,6.48635 -19.93341,7.7571 -24.92672,4.87421 -9.58508,-5.53395 -11.43038,-29.93084 -13.86043,-40.81427 z" id="path3624" style="font-size:30px;color:#000000;fill:#d8c263;fill-opacity:1;stroke:#1c4400;stroke-width:1;stroke-linecap:butt;stroke-linejoin:miter;stroke-miterlimit:4;stroke-opacity:1;stroke-dasharray:none;stroke-dashoffset:0;marker:none;visibility:visible;display:inline;overflow:visible;enable-background:accumulate"/>
  <path d="m 244.33273,516.4035 c -6.71609,-5.70101 -10.49616,-14.84956 -10.84643,-19.78886 -0.61766,-8.70982 2.31006,-15.23734 5.60605,-23.66263 3.29599,-8.42529 7.05103,-16.43989 14.0167,-22.87174 2.8897,-2.66826 14.6975,-10.8551 25.50451,-10.75403 10.80701,0.10107 26.88948,3.98582 35.11982,13.15416 5.63641,6.2788 4.22116,15.72996 5.71147,23.74685 1.49031,8.01689 0.64293,11.5362 -1.85759,17.60227 -3.48399,8.45188 -8.19311,14.64261 -16.70208,20.06296 -8.50897,5.42036 -21.34897,9.03431 -33.51324,9.13605 -9.99421,0.0836 -16.32312,-0.92402 -23.03921,-6.62503 z" id="path3626" style="font-size:30px;color:#000000;fill:#9bc67a;fill-opacity:1;stroke:none;stroke-width:2px;marker:none;visibility:visible;display:inline;overflow:visible;enable-background:accumulate"/>
  <use transform="translate(2.4093719,24.253608)" id="use4035" style="font-size:30px" x="0" y="0" width="420" height="583" xlink:href="#g3845"/>
  <path d="m 272.69217,355.09962 c 9.03159,-3.30622 13.87321,-30.55372 20.72738,-28.17099 6.85416,2.38272 13.52871,30.75816 8.31611,44.24704 -5.2126,13.48888 -22.03429,23.12039 -25.60301,23.14709 -3.56871,0.0267 -8.02509,-4.949 -8.18902,-12.24068 -0.13811,-6.14338 -4.28305,-23.67624 4.74854,-26.98246 z" id="path3628" style="font-size:30px;color:#000000;fill:#33a8cb;fill-opacity:1;stroke:#1c4400;stroke-width:1;stroke-linecap:butt;stroke-linejoin:miter;stroke-miterlimit:4;stroke-opacity:1;stroke-dasharray:none;stroke-dashoffset:0;marker:none;visibility:visible;display:inline;overflow:visible;enable-background:accumulate"/>
  <use transform="translate(-19.214728,-37.556063)" id="use3687" style="font-size:30px" x="0" y="0" width="420" height="583" xlink:href="#g3650"/>
  <use transform="translate(-15.284443,-13.100955)" id="use3685" style="font-size:30px" x="0" y="0" width="420" height="583" xlink:href="#g3650"/>
  <g id="g3650" style="font-size:30px">
    <path d="m 167.47382,468.14832 a 9.3890152,9.3890152 0 1 1 -18.77803,0 9.3890152,9.3890152 0 1 1 18.77803,0 z" transform="matrix(1.0118207,0,0,1.0118207,8.0377688,21.757994)" id="path3644" style="font-size:29.64952278px;fill:#439827;fill-opacity:1;stroke:#054400;stroke-opacity:1"/>
    <path d="m 167.47382,468.14832 a 9.3890152,9.3890152 0 1 1 -18.77803,0 9.3890152,9.3890152 0 1 1 18.77803,0 z" transform="matrix(1.0118207,0,0,1.0118207,-11.722832,21.867169)" id="path3646" style="font-size:29.64952278px;fill:#439827;fill-opacity:1;stroke:#054400;stroke-opacity:1"/>
    <rect width="7.3146977" height="18.341331" x="155.24626" y="501.11905" id="rect3648" style="font-size:30px;fill:#2a1a04;fill-opacity:1;stroke:#054400;stroke-width:1;stroke-linecap:square;stroke-linejoin:miter;stroke-miterlimit:4;stroke-opacity:1;stroke-dasharray:none;stroke-dashoffset:0"/>
    <path d="m 167.47382,468.14832 a 9.3890152,9.3890152 0 1 1 -18.77803,0 9.3890152,9.3890152 0 1 1 18.77803,0 z" transform="matrix(1.0118207,0,0,1.0118207,-2.7705157,21.43047)" id="path3642" style="font-size:29.64952278px;fill:#439827;fill-opacity:1;stroke:#054400;stroke-opacity:1"/>
    <path d="m 167.47382,468.14832 a 9.3890152,9.3890152 0 1 1 -18.77803,0 9.3890152,9.3890152 0 1 1 18.77803,0 z" transform="matrix(1.0118207,0,0,1.0118207,-8.1200706,12.259804)" id="path3640" style="font-size:29.64952278px;fill:#439827;fill-opacity:1;stroke:#054400;stroke-opacity:1"/>
    <path d="m 167.47382,468.14832 a 9.3890152,9.3890152 0 1 1 -18.77803,0 9.3890152,9.3890152 0 1 1 18.77803,0 z" transform="matrix(1.0118207,0,0,1.0118207,5.1992295,12.259804)" id="path3638" style="font-size:29.64952278px;fill:#439827;fill-opacity:1;stroke:#054400;stroke-opacity:1"/>
    <path d="m 167.47382,468.14832 a 9.3890152,9.3890152 0 1 1 -18.77803,0 9.3890152,9.3890152 0 1 1 18.77803,0 z" transform="matrix(1.0118207,0,0,1.0118207,-4.2989599,3.9625349)" id="path3636" style="font-size:29.64952278px;fill:#439827;fill-opacity:1;stroke:#054400;stroke-opacity:1"/>
    <path d="m 167.47382,468.14832 a 9.3890152,9.3890152 0 1 1 -18.77803,0 9.3890152,9.3890152 0 1 1 18.77803,0 z" transform="matrix(1.0118207,0,0,1.0118207,3.2643417,4.5084079)" id="path3634" style="font-size:29.64952278px;fill:#439827;fill-opacity:1;stroke:#054400;stroke-opacity:1"/>
    <path d="m 167.47382,468.14832 a 9.3890152,9.3890152 0 1 1 -18.77803,0 9.3890152,9.3890152 0 1 1 18.77803,0 z" transform="matrix(1.0118207,0,0,1.0118207,-1.7576895,-5.6448291)" id="path3632" style="font-size:29.64952278px;fill:#439827;fill-opacity:1;stroke:#054400;stroke-opacity:1"/>
  </g>
  <use transform="translate(15.947021,32.114179)" id="use4037" style="font-size:30px" x="0" y="0" width="420" height="583" xlink:href="#g3845"/>
  <use transform="translate(159.8316,-131.88291)" id="use3663" style="font-size:30px" x="0" y="0" width="420" height="583" xlink:href="#g3650"/>
  <use transform="translate(25.991084,36.917861)" id="use4039" style="font-size:30px" x="0" y="0" width="420" height="583" xlink:href="#g3845"/>
  <use transform="translate(173.36925,-95.636941)" id="use3661" style="font-size:30px" x="0" y="0" width="420" height="583" xlink:href="#g3650"/>
  <use transform="translate(-0.87339668,-237.12721)" id="use3691" style="font-size:30px" x="0" y="0" width="420" height="583" xlink:href="#g3650"/>
  <use transform="translate(-15.721141,-226.64645)" id="use3689" style="font-size:30px" x="0" y="0" width="420" height="583" xlink:href="#g3650"/>
  <rect width="21" height="17" x="165.5" y="42.5" id="rect3693" style="font-size:30px;fill:#968244;fill-opacity:1;stroke:#054400;stroke-width:0.99999994;stroke-linecap:square;stroke-linejoin:miter;stroke-miterlimit:4;stroke-opacity:1;stroke-dasharray:none;stroke-dashoffset:0"/>
  <rect width="10.808284" height="2.8331189" x="175.5" y="221.5" id="rect3695" style="font-size:30px;fill:#928b5e;fill-opacity:1;stroke:#3a3825;stroke-width:0.99999988;stroke-linecap:square;stroke-linejoin:miter;stroke-miterlimit:4;stroke-opacity:1;stroke-dasharray:none;stroke-dashoffset:0"/>
  <rect width="10.808284" height="2.8331189" x="175.5" y="-227.16644" transform="scale(1,-1)" id="rect3699" style="font-size:30px;fill:#928b5e;fill-opacity:1;stroke:#3a3825;stroke-width:1;stroke-linecap:square;stroke-linejoin:miter;stroke-miterlimit:4;stroke-opacity:1;stroke-dasharray:none;stroke-dashoffset:0"/>
  <rect width="10.808284" height="2.8331189" x="175.5" y="227.16672" id="rect3701" style="font-size:30px;fill:#928b5e;fill-opacity:1;stroke:#3a3825;stroke-width:1;stroke-linecap:square;stroke-linejoin:miter;stroke-miterlimit:4;stroke-opacity:1;stroke-dasharray:none;stroke-dashoffset:0"/>
  <rect width="10.808284" height="2.8331189" x="175.5" y="-238.5" transform="scale(1,-1)" id="rect3703" style="font-size:30px;fill:#928b5e;fill-opacity:1;stroke:#3a3825;stroke-width:0.99999988;stroke-linecap:square;stroke-linejoin:miter;stroke-miterlimit:4;stroke-opacity:1;stroke-dasharray:none;stroke-dashoffset:0"/>
  <rect width="10.808284" height="2.8331189" x="175.5" y="232.83356" id="rect3705" style="font-size:30px;fill:#928b5e;fill-opacity:1;stroke:#3a3825;stroke-width:1;stroke-linecap:square;stroke-linejoin:miter;stroke-miterlimit:4;stroke-opacity:1;stroke-dasharray:none;stroke-dashoffset:0"/>
  <rect width="10.808284" height="2.8331189" x="175.5" y="-232.83328" transform="scale(1,-1)" id="rect3707" style="font-size:30px;fill:#928b5e;fill-opacity:1;stroke:#3a3825;stroke-width:1;stroke-linecap:square;stroke-linejoin:miter;stroke-miterlimit:4;stroke-opacity:1;stroke-dasharray:none;stroke-dashoffset:0"/>
  <rect width="10.808284" height="2.8331189" x="175.5" y="238.49988" id="rect3709" style="font-size:30px;fill:#928b5e;fill-opacity:1;stroke:#3a3825;stroke-width:0.99999988;stroke-linecap:square;stroke-linejoin:miter;stroke-miterlimit:4;stroke-opacity:1;stroke-dasharray:none;stroke-dashoffset:0"/>
  <use transform="translate(2.4018421,-13.428475)" id="use3725" style="font-size:30px" x="0" y="0" width="420" height="583" xlink:href="#path3711"/>
  <use transform="translate(1.9651437,-6.1137774)" id="use3729" style="font-size:30px" x="0" y="0" width="420" height="583" xlink:href="#path3711"/>
  <path d="m 231.44803,545.22559 c -2.58913,2.61852 -2.0858,6.16477 -2.83644,9.33484 l 3.82111,0 -0.98467,-9.33484 z" id="path3711" style="font-size:30px;color:#000000;fill:#368123;fill-opacity:1;stroke:#065600;stroke-width:1;stroke-linecap:butt;stroke-linejoin:miter;stroke-miterlimit:4;stroke-opacity:1;stroke-dasharray:none;stroke-dashoffset:0;marker:none;visibility:visible;display:inline;overflow:visible;enable-background:accumulate"/>
  <use transform="translate(12.009205,-1.4192697)" id="use3715" style="font-size:30px" x="0" y="0" width="420" height="583" xlink:href="#path3711"/>
  <use transform="translate(17.467935,-3.6027615)" id="use3717" style="font-size:30px" x="0" y="0" width="420" height="583" xlink:href="#path3711"/>
  <use transform="translate(10.91746,-16.376189)" id="use3719" style="font-size:30px" x="0" y="0" width="420" height="583" xlink:href="#path3711"/>
  <use transform="translate(14.95692,-13.428475)" id="use3721" style="font-size:30px" x="0" y="0" width="420" height="583" xlink:href="#path3711"/>
  <use transform="translate(7.751397,-10.69911)" id="use3723" style="font-size:30px" x="0" y="0" width="420" height="583" xlink:href="#path3711"/>
  <use transform="translate(5.895429,-5.4587299)" id="use3727" style="font-size:30px" x="0" y="0" width="420" height="583" xlink:href="#path3711"/>
  <use transform="translate(-41.755467,-27.015339)" id="use3731" style="font-size:30px" x="0" y="0" width="420" height="583" xlink:href="#path3711"/>
  <use transform="translate(-32.148104,-15.006134)" id="use3733" style="font-size:30px" x="0" y="0" width="420" height="583" xlink:href="#path3711"/>
  <use transform="translate(-26.689374,-17.189626)" id="use3735" style="font-size:30px" x="0" y="0" width="420" height="583" xlink:href="#path3711"/>
  <use transform="translate(-33.239849,-29.963053)" id="use3737" style="font-size:30px" x="0" y="0" width="420" height="583" xlink:href="#path3711"/>
  <use transform="translate(-29.200389,-27.015339)" id="use3739" style="font-size:30px" x="0" y="0" width="420" height="583" xlink:href="#path3711"/>
  <use transform="translate(-36.405912,-24.285974)" id="use3741" style="font-size:30px" x="0" y="0" width="420" height="583" xlink:href="#path3711"/>
  <use transform="translate(-38.26188,-19.045594)" id="use3743" style="font-size:30px" x="0" y="0" width="420" height="583" xlink:href="#path3711"/>
  <use transform="translate(-64.29731,-18.677945)" id="use3745" style="font-size:30px" x="0" y="0" width="420" height="583" xlink:href="#path3711"/>
  <use transform="translate(-54.689947,-8.5214941)" id="use3747" style="font-size:30px" x="0" y="0" width="420" height="583" xlink:href="#path3711"/>
  <use transform="translate(-49.231217,-8.8522319)" id="use3749" style="font-size:30px" x="0" y="0" width="420" height="583" xlink:href="#path3711"/>
  <use transform="translate(-55.781692,-21.625659)" id="use3751" style="font-size:30px" x="0" y="0" width="420" height="583" xlink:href="#path3711"/>
  <use transform="translate(-51.742232,-18.677945)" id="use3753" style="font-size:30px" x="0" y="0" width="420" height="583" xlink:href="#path3711"/>
  <use transform="translate(-58.947755,-15.94858)" id="use3755" style="font-size:30px" x="0" y="0" width="420" height="583" xlink:href="#path3711"/>
  <use transform="translate(-60.803723,-10.7082)" id="use3757" style="font-size:30px" x="0" y="0" width="420" height="583" xlink:href="#path3711"/>
  <use transform="translate(-72.765273,-19.15532)" id="use3765" style="font-size:30px" x="0" y="0" width="420" height="583" xlink:href="#path3711"/>
  <use transform="translate(-68.725813,-16.207606)" id="use3767" style="font-size:30px" x="0" y="0" width="420" height="583" xlink:href="#path3711"/>
  <use transform="translate(-75.931336,-16.257372)" id="use3769" style="font-size:30px" x="0" y="0" width="420" height="583" xlink:href="#path3711"/>
  <use transform="translate(-44.191006,-10.991833)" id="use3773" style="font-size:30px" x="0" y="0" width="420" height="583" xlink:href="#path3711"/>
  <use transform="translate(-40.176705,-7.2863245)" id="use3775" style="font-size:30px" x="0" y="0" width="420" height="583" xlink:href="#path3711"/>
  <use transform="translate(-33.692065,-6.6687398)" id="use3777" style="font-size:30px" x="0" y="0" width="420" height="583" xlink:href="#path3711"/>
  <use transform="translate(-19.178823,-11.91821)" id="use3779" style="font-size:30px" x="0" y="0" width="420" height="583" xlink:href="#path3711"/>
  <use transform="translate(-23.810709,-15.314926)" id="use3783" style="font-size:30px" x="0" y="0" width="420" height="583" xlink:href="#path3711"/>
  <use transform="translate(-14.85573,-18.094057)" id="use3785" style="font-size:30px" x="0" y="0" width="420" height="583" xlink:href="#path3711"/>
  <use transform="translate(-10.841429,-17.16768)" id="use3787" style="font-size:30px" x="0" y="0" width="420" height="583" xlink:href="#path3711"/>
  <use transform="translate(-23.501916,-4.1984003)" id="use3789" style="font-size:30px" x="0" y="0" width="420" height="583" xlink:href="#path3711"/>
  <use transform="translate(-13.002975,-3.8896079)" id="use3791" style="font-size:30px" x="0" y="0" width="420" height="583" xlink:href="#path3711"/>
  <use transform="translate(-7.7535047,-6.0511545)" id="use3793" style="font-size:30px" x="0" y="0" width="420" height="583" xlink:href="#path3711"/>
  <use transform="translate(-158.2881,-266.23873)" id="use3916" style="font-size:30px" x="0" y="0" width="420" height="583" xlink:href="#g3845"/>
  <use transform="translate(-158.2881,-237.21224)" id="use3918" style="font-size:30px" x="0" y="0" width="420" height="583" xlink:href="#g3845"/>
  <use transform="translate(-157.05293,-206.95059)" id="use3920" style="font-size:30px" x="0" y="0" width="420" height="583" xlink:href="#g3845"/>
  <use transform="translate(-155.20017,-180.39445)" id="use3922" style="font-size:30px" x="0" y="0" width="420" height="583" xlink:href="#g3845"/>
  <use transform="translate(-155.30935,-342.6742)" id="use3924" style="font-size:30px" x="0" y="0" width="420" height="583" xlink:href="#g3845"/>
  <use transform="translate(-105.7934,-340.96648)" id="use3926" style="font-size:30px" x="0" y="0" width="420" height="583" xlink:href="#g3845"/>
  <use transform="translate(-102.70547,-313.79275)" id="use3928" style="font-size:30px" x="0" y="0" width="420" height="583" xlink:href="#g3845"/>
  <use transform="translate(-100.23513,-284.14868)" id="use3930" style="font-size:30px" x="0" y="0" width="420" height="583" xlink:href="#g3845"/>
  <use transform="translate(-94.05928,-254.50461)" id="use3932" style="font-size:30px" x="0" y="0" width="420" height="583" xlink:href="#g3845"/>
  <use transform="translate(-88.192225,-223.31658)" id="use3934" style="font-size:30px" x="0" y="0" width="420" height="583" xlink:href="#g3845"/>
  <use transform="translate(-80.472417,-209.42093)" id="use3936" style="font-size:30px" x="0" y="0" width="420" height="583" xlink:href="#g3845"/>
  <use transform="translate(-77.384493,-184.71754)" id="use3938" style="font-size:30px" x="0" y="0" width="420" height="583" xlink:href="#g3845"/>
  <use transform="translate(-58.893444,-531.89087)" id="use3942" style="font-size:30px" x="0" y="0" width="420" height="583" xlink:href="#path3711"/>
  <use transform="translate(-51.921788,-534.5298)" id="use3944" style="font-size:30px" x="0" y="0" width="420" height="583" xlink:href="#path3711"/>
  <use transform="translate(-46.801555,-532.81725)" id="use3946" style="font-size:30px" x="0" y="0" width="420" height="583" xlink:href="#path3711"/>
  <use transform="translate(-48.050911,-526.05752)" id="use3948" style="font-size:30px" x="0" y="0" width="420" height="583" xlink:href="#path3711"/>
  <use transform="translate(-51.999927,-529.93349)" id="use3950" style="font-size:30px" x="0" y="0" width="420" height="583" xlink:href="#path3711"/>
  <use transform="translate(-55.863046,-525.1563)" id="use3952" style="font-size:30px" x="0" y="0" width="420" height="583" xlink:href="#path3711"/>
  <use transform="translate(-59.630625,-522.8152)" id="use3954" style="font-size:30px" x="0" y="0" width="420" height="583" xlink:href="#path3711"/>
  <use transform="translate(-61.483379,-518.18332)" id="use3956" style="font-size:30px" x="0" y="0" width="420" height="583" xlink:href="#path3711"/>
  <use transform="translate(-43.727818,-522.81519)" id="use3960" style="font-size:30px" x="0" y="0" width="420" height="583" xlink:href="#path3711"/>
  <use transform="translate(-50.929576,-522.99153)" id="use3962" style="font-size:30px" x="0" y="0" width="420" height="583" xlink:href="#path3711"/>
  <use transform="translate(-66.732849,-528.06466)" id="use3966" style="font-size:30px" x="0" y="0" width="420" height="583" xlink:href="#path3711"/>
  <use transform="translate(-69.203188,-519.41847)" id="use3981" style="font-size:30px" x="0" y="0" width="420" height="583" xlink:href="#path3711"/>
  <use transform="translate(-171.25738,-57.803877)" id="use3983" style="font-size:30px" x="0" y="0" width="420" height="583" xlink:href="#g3845"/>
  <use transform="translate(-170.63979,-29.417938)" id="use3985" style="font-size:30px" x="0" y="0" width="420" height="583" xlink:href="#g3845"/>
  <use transform="translate(-171.07649,-5.8362253)" id="use3987" style="font-size:30px" x="0" y="0" width="420" height="583" xlink:href="#g3845"/>
  <use transform="translate(-172.82328,14.033554)" id="use3989" style="font-size:30px" x="0" y="0" width="420" height="583" xlink:href="#g3845"/>
  <g transform="translate(-87.079451,230.66791)" id="g4001" style="font-size:30px">
    <use transform="translate(26.333252,-441.10591)" id="use4003" style="font-size:30px" x="0" y="0" width="420" height="583" xlink:href="#path3711"/>
    <use transform="translate(30.062588,-443.59044)" id="use4005" style="font-size:30px" x="0" y="0" width="420" height="583" xlink:href="#path3711"/>
    <use transform="translate(33.63886,-442.88147)" id="use4007" style="font-size:30px" x="0" y="0" width="420" height="583" xlink:href="#path3711"/>
    <use transform="translate(33.330068,-438.01799)" id="use4009" style="font-size:30px" x="0" y="0" width="420" height="583" xlink:href="#path3711"/>
    <use transform="translate(36.403803,-437.4341)" id="use4011" style="font-size:30px" x="0" y="0" width="420" height="583" xlink:href="#path3711"/>
    <use transform="translate(35.631823,-430.79507)" id="use4013" style="font-size:30px" x="0" y="0" width="420" height="583" xlink:href="#path3711"/>
    <use transform="translate(30.293241,-436.83259)" id="use4015" style="font-size:30px" x="0" y="0" width="420" height="583" xlink:href="#path3711"/>
    <use transform="translate(27.896886,-432.75018)" id="use4017" style="font-size:30px" x="0" y="0" width="420" height="583" xlink:href="#path3711"/>
    <use transform="translate(25.055684,-430.02309)" id="use4019" style="font-size:30px" x="0" y="0" width="420" height="583" xlink:href="#path3711"/>
    <use transform="translate(26.522448,-424.46483)" id="use4021" style="font-size:30px" x="0" y="0" width="420" height="583" xlink:href="#path3711"/>
    <use transform="translate(31.826781,-430.35382)" id="use4023" style="font-size:30px" x="0" y="0" width="420" height="583" xlink:href="#path3711"/>
    <use transform="translate(26.676845,-417.3626)" id="use4025" style="font-size:30px" x="0" y="0" width="420" height="583" xlink:href="#path3711"/>
  </g>
  <use transform="translate(-80.354514,-249.65464)" id="use4047" style="font-size:30px" x="0" y="0" width="420" height="583" xlink:href="#path3711"/>
  <use transform="translate(-70.747151,-239.49819)" id="use4049" style="font-size:30px" x="0" y="0" width="420" height="583" xlink:href="#path3711"/>
  <use transform="translate(-65.288421,-239.82893)" id="use4051" style="font-size:30px" x="0" y="0" width="420" height="583" xlink:href="#path3711"/>
  <use transform="translate(-71.838896,-252.60235)" id="use4053" style="font-size:30px" x="0" y="0" width="420" height="583" xlink:href="#path3711"/>
  <use transform="translate(-67.799436,-249.65464)" id="use4055" style="font-size:30px" x="0" y="0" width="420" height="583" xlink:href="#path3711"/>
  <use transform="translate(-75.004959,-246.92528)" id="use4057" style="font-size:30px" x="0" y="0" width="420" height="583" xlink:href="#path3711"/>
  <use transform="translate(-76.860927,-241.6849)" id="use4059" style="font-size:30px" x="0" y="0" width="420" height="583" xlink:href="#path3711"/>
  <use transform="translate(-88.822477,-250.13202)" id="use4061" style="font-size:30px" x="0" y="0" width="420" height="583" xlink:href="#path3711"/>
  <use transform="translate(-84.783017,-247.1843)" id="use4063" style="font-size:30px" x="0" y="0" width="420" height="583" xlink:href="#path3711"/>
  <use transform="translate(-91.98854,-244.45494)" id="use4065" style="font-size:30px" x="0" y="0" width="420" height="583" xlink:href="#path3711"/>
  <path d="m 283.16262,487.89194 a 2.7791314,2.7791314 0 1 1 -5.55827,0 2.7791314,2.7791314 0 1 1 5.55827,0 z" transform="translate(0.34739142,-0.23159428)" id="path4073" style="font-size:30px;fill:#000000;fill-opacity:1;stroke:none"/>
  <path d="m 280.60959,488.07832 0,-32.19161 12.35441,5.97813 -12.44568,6.03081" id="path4075" style="font-size:30px;color:#000000;fill:#ffffff;fill-opacity:1;stroke:#000000;stroke-width:2px;stroke-linecap:butt;stroke-linejoin:miter;stroke-miterlimit:4;stroke-opacity:1;stroke-dasharray:none;stroke-dashoffset:0;marker:none;visibility:visible;display:inline;overflow:visible;enable-background:accumulate"/>
  <path d="m 172.68884,51.024624 -22.23305,16.365995 -33.34958,0" id="path4153" style="font-size:30px;color:#000000;fill:none;stroke:#ffffff;stroke-width:2px;stroke-linecap:butt;stroke-linejoin:miter;stroke-miterlimit:4;stroke-opacity:1;stroke-dasharray:none;stroke-dashoffset:0;marker:none;visibility:visible;display:inline;overflow:visible;enable-background:accumulate"/>
  <path d="m 171.68856,50.024364 -22.23305,16.365995 -33.34958,0" id="path4085" style="font-size:30px;color:#000000;fill:none;stroke:#000000;stroke-width:2px;stroke-linecap:butt;stroke-linejoin:miter;stroke-miterlimit:4;stroke-opacity:1;stroke-dasharray:none;stroke-dashoffset:0;marker:none;visibility:visible;display:inline;overflow:visible;enable-background:accumulate"/>
  <path d="m 237.53524,234.44729 21.15228,-21.15227 28.2545,0" id="path4155" style="font-size:30px;color:#000000;fill:none;stroke:#ffffff;stroke-width:2px;stroke-linecap:butt;stroke-linejoin:miter;stroke-miterlimit:4;stroke-opacity:1;stroke-dasharray:none;stroke-dashoffset:0;marker:none;visibility:visible;display:inline;overflow:visible;enable-background:accumulate"/>
  <path d="m 236.53496,233.44703 21.15228,-21.15227 28.2545,0" id="path4087" style="font-size:30px;color:#000000;fill:none;stroke:#000000;stroke-width:2px;stroke-linecap:butt;stroke-linejoin:miter;stroke-miterlimit:4;stroke-opacity:1;stroke-dasharray:none;stroke-dashoffset:0;marker:none;visibility:visible;display:inline;overflow:visible;enable-background:accumulate"/>
  <path d="m 243.40229,288.79475 99.73994,0" id="path4157" style="font-size:30px;color:#000000;fill:none;stroke:#ffffff;stroke-width:2px;stroke-linecap:butt;stroke-linejoin:miter;stroke-miterlimit:4;stroke-opacity:1;stroke-dasharray:none;stroke-dashoffset:0;marker:none;visibility:visible;display:inline;overflow:visible;enable-background:accumulate"/>
  <path d="m 242.40201,287.79449 99.73994,0" id="path4089" style="font-size:30px;color:#000000;fill:none;stroke:#000000;stroke-width:2px;stroke-linecap:butt;stroke-linejoin:miter;stroke-miterlimit:4;stroke-opacity:1;stroke-dasharray:none;stroke-dashoffset:0;marker:none;visibility:visible;display:inline;overflow:visible;enable-background:accumulate"/>
  <path d="m 296.51458,341.59825 20.99788,-20.99788 31.49682,0" id="path4159" style="font-size:30px;color:#000000;fill:none;stroke:#ffffff;stroke-width:2px;stroke-linecap:butt;stroke-linejoin:miter;stroke-miterlimit:4;stroke-opacity:1;stroke-dasharray:none;stroke-dashoffset:0;marker:none;visibility:visible;display:inline;overflow:visible;enable-background:accumulate"/>
  <path d="m 295.5143,340.59799 20.99788,-20.99788 31.49682,0" id="path4091" style="font-size:30px;color:#000000;fill:none;stroke:#000000;stroke-width:2px;stroke-linecap:butt;stroke-linejoin:miter;stroke-miterlimit:4;stroke-opacity:1;stroke-dasharray:none;stroke-dashoffset:0;marker:none;visibility:visible;display:inline;overflow:visible;enable-background:accumulate"/>
  <path d="m 299.9113,463.26244 20.49995,-15.83565 43.11128,0" id="path4161" style="font-size:30px;color:#000000;fill:none;stroke:#ffffff;stroke-width:2px;stroke-linecap:butt;stroke-linejoin:miter;stroke-miterlimit:4;stroke-opacity:1;stroke-dasharray:none;stroke-dashoffset:0;marker:none;visibility:visible;display:inline;overflow:visible;enable-background:accumulate"/>
  <path d="m 298.91102,462.26218 20.49995,-15.83565 43.11128,0" id="path4093" style="font-size:30px;color:#000000;fill:none;stroke:#000000;stroke-width:2px;stroke-linecap:butt;stroke-linejoin:miter;stroke-miterlimit:4;stroke-opacity:1;stroke-dasharray:none;stroke-dashoffset:0;marker:none;visibility:visible;display:inline;overflow:visible;enable-background:accumulate"/>
  <path d="m 287.86839,487.96583 19.53775,-11.28012 53.64605,0" id="path4163" style="font-size:30px;color:#000000;fill:none;stroke:#ffffff;stroke-width:2px;stroke-linecap:butt;stroke-linejoin:miter;stroke-miterlimit:4;stroke-opacity:1;stroke-dasharray:none;stroke-dashoffset:0;marker:none;visibility:visible;display:inline;overflow:visible;enable-background:accumulate"/>
  <path d="m 286.86811,486.96557 19.53775,-11.28012 53.64605,0" id="path4095" style="font-size:30px;color:#000000;fill:none;stroke:#000000;stroke-width:2px;stroke-linecap:butt;stroke-linejoin:miter;stroke-miterlimit:4;stroke-opacity:1;stroke-dasharray:none;stroke-dashoffset:0;marker:none;visibility:visible;display:inline;overflow:visible;enable-background:accumulate"/>
  <path d="m 248.65176,504.64062 -48.17161,57.43538 -87.69703,0" id="path4165" style="font-size:30px;color:#000000;fill:none;stroke:#ffffff;stroke-width:2px;stroke-linecap:butt;stroke-linejoin:miter;stroke-miterlimit:4;stroke-opacity:1;stroke-dasharray:none;stroke-dashoffset:0;marker:none;visibility:visible;display:inline;overflow:visible;enable-background:accumulate"/>
  <path d="m 247.65148,503.64036 -48.17161,57.43538 -87.69703,0" id="path4097" style="font-size:30px;color:#000000;fill:none;stroke:#000000;stroke-width:2px;stroke-linecap:butt;stroke-linejoin:miter;stroke-miterlimit:4;stroke-opacity:1;stroke-dasharray:none;stroke-dashoffset:0;marker:none;visibility:visible;display:inline;overflow:visible;enable-background:accumulate"/>
  <path d="m 78.198377,382.97642 121.664193,0" id="path4167" style="font-size:30px;color:#000000;fill:none;stroke:#ffffff;stroke-width:2px;stroke-linecap:butt;stroke-linejoin:miter;stroke-miterlimit:4;stroke-opacity:1;stroke-dasharray:none;stroke-dashoffset:0;marker:none;visibility:visible;display:inline;overflow:visible;enable-background:accumulate"/>
  <path d="m 77.198093,381.97616 121.664197,0" id="path4099" style="font-size:30px;color:#000000;fill:none;stroke:#000000;stroke-width:2px;stroke-linecap:butt;stroke-linejoin:miter;stroke-miterlimit:4;stroke-opacity:1;stroke-dasharray:none;stroke-dashoffset:0;marker:none;visibility:visible;display:inline;overflow:visible;enable-background:accumulate"/>
  <path d="m 77.272,331.4081 47.86281,0" id="path4169" style="font-size:30px;color:#000000;fill:none;stroke:#ffffff;stroke-width:2px;stroke-linecap:butt;stroke-linejoin:miter;stroke-miterlimit:4;stroke-opacity:1;stroke-dasharray:none;stroke-dashoffset:0;marker:none;visibility:visible;display:inline;overflow:visible;enable-background:accumulate"/>
  <path d="m 76.271716,330.40784 47.862814,0" id="path4101" style="font-size:30px;color:#000000;fill:none;stroke:#000000;stroke-width:2px;stroke-linecap:butt;stroke-linejoin:miter;stroke-miterlimit:4;stroke-opacity:1;stroke-dasharray:none;stroke-dashoffset:0;marker:none;visibility:visible;display:inline;overflow:visible;enable-background:accumulate"/>
  <path d="m 75.580793,306.08712 50.950737,0 9.72696,9.72696" id="path4171" style="font-size:30px;color:#000000;fill:none;stroke:#ffffff;stroke-width:2px;stroke-linecap:butt;stroke-linejoin:miter;stroke-miterlimit:4;stroke-opacity:1;stroke-dasharray:none;stroke-dashoffset:0;marker:none;visibility:visible;display:inline;overflow:visible;enable-background:accumulate"/>
  <path d="m 76.580509,305.08686 50.950741,0 9.72696,9.72696" id="path4103" style="font-size:30px;color:#000000;fill:none;stroke:#000000;stroke-width:2px;stroke-linecap:butt;stroke-linejoin:miter;stroke-miterlimit:4;stroke-opacity:1;stroke-dasharray:none;stroke-dashoffset:0;marker:none;visibility:visible;display:inline;overflow:visible;enable-background:accumulate"/>
  <svg:switch style="font-size:30px;font-style:normal;font-variant:normal;font-weight:normal;font-stretch:normal;fill:#000000;fill-opacity:1;stroke:none;font-family:Sans;-inkscape-font-specification:Sans"><svg:text x="86.684624" y="80.79689" id="text4105-bn" xml:space="preserve" style="font-size:30px;font-style:normal;font-variant:normal;font-weight:normal;font-stretch:normal;fill:#000000;fill-opacity:1;stroke:none;font-family:Sans;-inkscape-font-specification:Sans" systemLanguage="bn"><svg:tspan x="86.684624" y="80.79689" id="tspan4107-bn">১</svg:tspan></svg:text><svg:text x="86.684624" y="80.79689" id="text4105" xml:space="preserve" style="font-size:30px;font-style:normal;font-variant:normal;font-weight:normal;font-stretch:normal;fill:#000000;fill-opacity:1;stroke:none;font-family:Sans;-inkscape-font-specification:Sans"><svg:tspan x="86.684624" y="80.79689" id="tspan4107">1</svg:tspan></svg:text></svg:switch>
  <svg:switch style="font-size:30px;font-style:normal;font-variant:normal;font-weight:normal;font-stretch:normal;fill:#000000;fill-opacity:1;stroke:none;font-family:Sans;-inkscape-font-specification:Sans"><svg:text x="292.36954" y="225.9991" id="text4109-bn" xml:space="preserve" style="font-size:30px;font-style:normal;font-variant:normal;font-weight:normal;font-stretch:normal;fill:#000000;fill-opacity:1;stroke:none;font-family:Sans;-inkscape-font-specification:Sans" systemLanguage="bn"><svg:tspan x="292.36954" y="225.9991" id="tspan4111-bn">২</svg:tspan></svg:text><svg:text x="292.36954" y="225.9991" id="text4109" xml:space="preserve" style="font-size:30px;font-style:normal;font-variant:normal;font-weight:normal;font-stretch:normal;fill:#000000;fill-opacity:1;stroke:none;font-family:Sans;-inkscape-font-specification:Sans"><svg:tspan x="292.36954" y="225.9991" id="tspan4111">2</svg:tspan></svg:text></svg:switch>
  <svg:switch style="font-size:30px;font-style:normal;font-variant:normal;font-weight:normal;font-stretch:normal;fill:#000000;fill-opacity:1;stroke:none;font-family:Sans;-inkscape-font-specification:Sans"><svg:text x="52.622139" y="314.64886" id="text4113-bn" xml:space="preserve" style="font-size:30px;font-style:normal;font-variant:normal;font-weight:normal;font-stretch:normal;fill:#000000;fill-opacity:1;stroke:none;font-family:Sans;-inkscape-font-specification:Sans" systemLanguage="bn"><svg:tspan x="52.622139" y="314.64886" id="tspan4115-bn">৩</svg:tspan></svg:text><svg:text x="52.622139" y="314.64886" id="text4113" xml:space="preserve" style="font-size:30px;font-style:normal;font-variant:normal;font-weight:normal;font-stretch:normal;fill:#000000;fill-opacity:1;stroke:none;font-family:Sans;-inkscape-font-specification:Sans"><svg:tspan x="52.622139" y="314.64886" id="tspan4115">3</svg:tspan></svg:text></svg:switch>
  <svg:switch style="font-size:30px;font-style:normal;font-variant:normal;font-weight:normal;font-stretch:normal;fill:#000000;fill-opacity:1;stroke:none;font-family:Sans;-inkscape-font-specification:Sans"><svg:text x="51.904366" y="341.28748" id="text4117-bn" xml:space="preserve" style="font-size:30px;font-style:normal;font-variant:normal;font-weight:normal;font-stretch:normal;fill:#000000;fill-opacity:1;stroke:none;font-family:Sans;-inkscape-font-specification:Sans" systemLanguage="bn"><svg:tspan x="51.904366" y="341.28748" id="tspan4119-bn">৪</svg:tspan></svg:text><svg:text x="51.904366" y="341.28748" id="text4117" xml:space="preserve" style="font-size:30px;font-style:normal;font-variant:normal;font-weight:normal;font-stretch:normal;fill:#000000;fill-opacity:1;stroke:none;font-family:Sans;-inkscape-font-specification:Sans"><svg:tspan x="51.904366" y="341.28748" id="tspan4119">4</svg:tspan></svg:text></svg:switch>
  <svg:switch style="font-size:30px;font-style:normal;font-variant:normal;font-weight:normal;font-stretch:normal;fill:#000000;fill-opacity:1;stroke:none;font-family:Sans;-inkscape-font-specification:Sans"><svg:text x="360.93118" y="298.92773" id="text4121-bn" xml:space="preserve" style="font-size:30px;font-style:normal;font-variant:normal;font-weight:normal;font-stretch:normal;fill:#000000;fill-opacity:1;stroke:none;font-family:Sans;-inkscape-font-specification:Sans" systemLanguage="bn"><svg:tspan x="360.93118" y="298.92773" id="tspan4123-bn">৫</svg:tspan></svg:text><svg:text x="360.93118" y="298.92773" id="text4121" xml:space="preserve" style="font-size:30px;font-style:normal;font-variant:normal;font-weight:normal;font-stretch:normal;fill:#000000;fill-opacity:1;stroke:none;font-family:Sans;-inkscape-font-specification:Sans"><svg:tspan x="360.93118" y="298.92773" id="tspan4123">5</svg:tspan></svg:text></svg:switch>
  <svg:switch style="font-size:30px;font-style:normal;font-variant:normal;font-weight:normal;font-stretch:normal;fill:#000000;fill-opacity:1;stroke:none;font-family:Sans;-inkscape-font-specification:Sans"><svg:text x="360.93118" y="331.24344" id="text4125-bn" xml:space="preserve" style="font-size:30px;font-style:normal;font-variant:normal;font-weight:normal;font-stretch:normal;fill:#000000;fill-opacity:1;stroke:none;font-family:Sans;-inkscape-font-specification:Sans" systemLanguage="bn"><svg:tspan x="360.93118" y="331.24344" id="tspan4127-bn">৬</svg:tspan></svg:text><svg:text x="360.93118" y="331.24344" id="text4125" xml:space="preserve" style="font-size:30px;font-style:normal;font-variant:normal;font-weight:normal;font-stretch:normal;fill:#000000;fill-opacity:1;stroke:none;font-family:Sans;-inkscape-font-specification:Sans"><svg:tspan x="360.93118" y="331.24344" id="tspan4127">6</svg:tspan></svg:text></svg:switch>
  <svg:switch style="font-size:30px;font-style:normal;font-variant:normal;font-weight:normal;font-stretch:normal;fill:#000000;fill-opacity:1;stroke:none;font-family:Sans;-inkscape-font-specification:Sans"><svg:text x="52.783272" y="393.25461" id="text4129-bn" xml:space="preserve" style="font-size:30px;font-style:normal;font-variant:normal;font-weight:normal;font-stretch:normal;fill:#000000;fill-opacity:1;stroke:none;font-family:Sans;-inkscape-font-specification:Sans" systemLanguage="bn"><svg:tspan x="52.783272" y="393.25461" id="tspan4131-bn">৭</svg:tspan></svg:text><svg:text x="52.783272" y="393.25461" id="text4129" xml:space="preserve" style="font-size:30px;font-style:normal;font-variant:normal;font-weight:normal;font-stretch:normal;fill:#000000;fill-opacity:1;stroke:none;font-family:Sans;-inkscape-font-specification:Sans"><svg:tspan x="52.783272" y="393.25461" id="tspan4131">7</svg:tspan></svg:text></svg:switch>
  <svg:switch style="font-size:30px;font-style:normal;font-variant:normal;font-weight:normal;font-stretch:normal;fill:#000000;fill-opacity:1;stroke:none;font-family:Sans;-inkscape-font-specification:Sans"><svg:text x="79.920647" y="570.55414" id="text4141-bn" xml:space="preserve" style="font-size:30px;font-style:normal;font-variant:normal;font-weight:normal;font-stretch:normal;fill:#000000;fill-opacity:1;stroke:none;font-family:Sans;-inkscape-font-specification:Sans" systemLanguage="bn"><svg:tspan x="79.920647" y="570.55414" id="tspan4143-bn">৮</svg:tspan></svg:text><svg:text x="79.920647" y="570.55414" id="text4141" xml:space="preserve" style="font-size:30px;font-style:normal;font-variant:normal;font-weight:normal;font-stretch:normal;fill:#000000;fill-opacity:1;stroke:none;font-family:Sans;-inkscape-font-specification:Sans"><svg:tspan x="79.920647" y="570.55414" id="tspan4143">8</svg:tspan></svg:text></svg:switch>
  <svg:switch style="font-size:30px;font-style:normal;font-variant:normal;font-weight:normal;font-stretch:normal;fill:#000000;fill-opacity:1;stroke:none;font-family:Sans;-inkscape-font-specification:Sans"><svg:text x="371.42065" y="457.31134" id="text4145-bn" xml:space="preserve" style="font-size:30px;font-style:normal;font-variant:normal;font-weight:normal;font-stretch:normal;fill:#000000;fill-opacity:1;stroke:none;font-family:Sans;-inkscape-font-specification:Sans" systemLanguage="bn"><svg:tspan x="371.42065" y="457.31134" id="tspan4147-bn">৯</svg:tspan></svg:text><svg:text x="371.42065" y="457.31134" id="text4145" xml:space="preserve" style="font-size:30px;font-style:normal;font-variant:normal;font-weight:normal;font-stretch:normal;fill:#000000;fill-opacity:1;stroke:none;font-family:Sans;-inkscape-font-specification:Sans"><svg:tspan x="371.42065" y="457.31134" id="tspan4147">9</svg:tspan></svg:text></svg:switch>
  <svg:switch style="font-size:30px;font-style:normal;font-variant:normal;font-weight:normal;font-stretch:normal;fill:#000000;fill-opacity:1;stroke:none;font-family:Sans;-inkscape-font-specification:Sans"><svg:text x="371.42065" y="486.13345" id="text4149-bn" xml:space="preserve" style="font-size:30px;font-style:normal;font-variant:normal;font-weight:normal;font-stretch:normal;fill:#000000;fill-opacity:1;stroke:none;font-family:Sans;-inkscape-font-specification:Sans" systemLanguage="bn"><svg:tspan x="371.42065" y="486.13345" id="tspan4151-bn">১০</svg:tspan></svg:text><svg:text x="371.42065" y="486.13345" id="text4149" xml:space="preserve" style="font-size:30px;font-style:normal;font-variant:normal;font-weight:normal;font-stretch:normal;fill:#000000;fill-opacity:1;stroke:none;font-family:Sans;-inkscape-font-specification:Sans"><svg:tspan x="371.42065" y="486.13345" id="tspan4151">10</svg:tspan></svg:text></svg:switch>
</svg>
