<?xml version="1.0" standalone="no"?>
<!DOCTYPE svg PUBLIC "-//W3C//DTD SVG 20010904//EN"
 "http://www.w3.org/TR/2001/REC-SVG-20010904/DTD/svg10.dtd">
<svg version="1.0" xmlns="http://www.w3.org/2000/svg"
 width="512.000000pt" height="512.000000pt" viewBox="0 0 512.000000 512.000000"
 preserveAspectRatio="xMidYMid meet">
<metadata>
Created by potrace 1.11, written by Peter Selinger 2001-2013
</metadata>
<g transform="translate(0.000000,512.000000) scale(0.100000,-0.100000)"
fill="#000000" stroke="none">
<path d="M1278 3530 c-255 -42 -489 -218 -606 -456 -57 -115 -81 -230 -77
-379 1 -60 5 -123 9 -140 70 -317 298 -558 607 -642 89 -24 318 -24 409 1 272
74 490 278 579 543 29 87 32 106 35 238 4 152 -18 256 -78 380 -105 215 -319
388 -541 440 -78 18 -265 26 -337 15z m272 -54 c190 -29 378 -151 505 -330 39
-55 89 -158 102 -210 32 -127 36 -291 10 -401 -40 -167 -151 -335 -294 -444
-61 -46 -187 -106 -268 -127 -96 -24 -285 -24 -379 0 -271 71 -483 279 -556
546 -55 205 -20 445 89 612 108 165 265 285 434 333 109 31 239 39 357 21z"/>
<path d="M1319 3436 c-2 -2 -20 -6 -39 -9 -102 -17 -191 -55 -287 -123 -180
-129 -287 -322 -300 -543 -18 -303 133 -563 406 -701 157 -79 394 -90 567 -28
52 19 161 80 194 108 14 12 32 27 40 34 36 27 113 124 145 181 71 126 90 208
90 375 -1 131 -23 221 -80 327 -96 176 -273 315 -460 363 -45 11 -267 24 -276
16z m255 -67 c231 -54 431 -252 491 -486 22 -84 27 -228 10 -308 -50 -248
-268 -466 -517 -518 -79 -17 -241 -15 -313 3 -213 54 -430 268 -480 475 -4 17
-9 39 -12 50 -11 47 -9 212 3 271 55 260 290 486 541 520 26 3 49 8 51 9 8 7
179 -5 226 -16z"/>
<path d="M1280 3234 c-88 -24 -162 -82 -203 -159 -27 -51 -30 -173 -5 -220 22
-41 67 -85 102 -100 l30 -13 -42 -21 c-88 -45 -143 -130 -144 -224 -4 -199
134 -319 373 -326 228 -7 390 90 415 247 11 71 11 85 -4 137 -21 76 -72 137
-142 171 l-35 17 31 13 c39 16 101 87 113 129 14 50 6 147 -17 191 -32 63
-110 127 -183 151 -76 25 -211 29 -289 7z m245 -169 c22 -13 47 -36 57 -52 21
-37 15 -114 -12 -153 -38 -53 -158 -72 -255 -40 -72 24 -107 128 -65 195 50
80 182 104 275 50z m18 -438 c111 -65 106 -222 -10 -278 -57 -28 -166 -30
-230 -4 -83 33 -119 133 -78 219 30 64 100 94 206 91 52 -1 77 -8 112 -28z"/>
<path d="M3170 3533 c-51 -7 -174 -35 -189 -43 -9 -4 -45 -22 -81 -40 -228
-113 -401 -344 -441 -589 -52 -325 64 -613 328 -812 106 -80 184 -115 328
-144 91 -18 268 -14 360 9 319 81 579 374 612 689 30 285 -50 514 -246 705
-152 148 -325 221 -536 226 -60 2 -121 1 -135 -1z m240 -58 c245 -43 469 -222
573 -457 74 -166 79 -397 13 -571 -95 -251 -311 -436 -575 -493 -14 -3 -73 -7
-130 -8 -234 -7 -432 77 -591 251 -97 106 -147 202 -187 357 -3 11 -7 78 -8
148 -4 136 13 231 57 327 107 231 348 419 572 445 27 3 51 8 53 10 6 5 182 -1
223 -9z"/>
<path d="M3120 3425 c-253 -50 -484 -266 -548 -510 -52 -199 -20 -427 83 -585
97 -149 225 -249 391 -306 70 -24 94 -28 209 -28 141 0 181 5 265 36 168 63
319 196 399 355 100 199 100 456 2 652 -95 187 -265 325 -465 377 -79 21 -253
25 -336 9z m283 -50 c151 -31 301 -125 398 -247 135 -171 177 -412 109 -625
-53 -167 -200 -329 -364 -403 -88 -39 -157 -54 -271 -55 -202 -3 -369 72 -508
227 -209 233 -224 599 -34 846 106 137 255 230 412 257 71 12 198 12 258 0z"/>
<path d="M3146 3239 c-78 -19 -165 -81 -203 -146 -34 -59 -43 -168 -18 -227
18 -44 72 -101 104 -111 28 -8 27 -21 -2 -29 -37 -9 -104 -73 -128 -123 -14
-29 -23 -68 -25 -105 -7 -199 137 -322 383 -327 242 -5 393 101 410 287 8 85
-17 153 -78 214 -26 26 -59 50 -73 54 -14 3 -26 9 -25 13 0 3 21 20 47 36 137
88 123 311 -26 410 -67 44 -136 62 -236 63 -50 0 -108 -4 -130 -9z m223 -163
c109 -57 113 -198 8 -253 -36 -18 -136 -23 -188 -9 -63 16 -92 55 -97 126 -4
60 -4 61 37 100 59 56 169 72 240 36z m19 -440 c99 -51 121 -193 42 -260 -104
-87 -321 -55 -358 53 -21 59 1 143 46 184 49 44 204 57 270 23z"/>
<path d="M4506 3507 c-53 -13 -131 -89 -145 -142 -39 -141 52 -273 192 -281
89 -4 169 42 207 121 67 138 -26 295 -181 309 -19 1 -52 -2 -73 -7z m133 -123
c59 -50 50 -144 -17 -182 -61 -34 -128 -12 -158 52 -13 26 -14 40 -4 74 21 78
117 108 179 56z"/>
</g>
</svg>
