<?xml version="1.0" encoding="UTF-8" standalone="no"?>
<!-- Created with Inkscape (http://www.inkscape.org/) -->

<svg
   xmlns:dc="http://purl.org/dc/elements/1.1/"
   xmlns:cc="http://creativecommons.org/ns#"
   xmlns:rdf="http://www.w3.org/1999/02/22-rdf-syntax-ns#"
   xmlns:svg="http://www.w3.org/2000/svg"
   xmlns="http://www.w3.org/2000/svg"
   xmlns:xlink="http://www.w3.org/1999/xlink"
   xmlns:sodipodi="http://sodipodi.sourceforge.net/DTD/sodipodi-0.dtd"
   xmlns:inkscape="http://www.inkscape.org/namespaces/inkscape"
   width="600.00000pt"
   height="350.00000pt"
   id="svg2"
   sodipodi:version="0.32"
   inkscape:version="0.91 r13725"
   sodipodi:docname="HeatpumpOrg - Kopie.svg"
   version="1.1">
  <defs
     id="defs3">
    <linearGradient
       id="linearGradient8101"
       inkscape:collect="always">
      <stop
         id="stop8103"
         offset="0"
         style="stop-color:#000000;stop-opacity:1;" />
      <stop
         id="stop8105"
         offset="1"
         style="stop-color:#000000;stop-opacity:0;" />
    </linearGradient>
    <linearGradient
       id="linearGradient7022">
      <stop
         id="stop7024"
         offset="0.0000000"
         style="stop-color:#0000ff;stop-opacity:0.0000000;" />
      <stop
         id="stop7026"
         offset="1.0000000"
         style="stop-color:#0000ff;stop-opacity:0.49803922;" />
    </linearGradient>
    <linearGradient
       inkscape:collect="always"
       id="linearGradient29906">
      <stop
         style="stop-color:#000000;stop-opacity:1;"
         offset="0"
         id="stop29908" />
      <stop
         style="stop-color:#000000;stop-opacity:0;"
         offset="1"
         id="stop29910" />
    </linearGradient>
    <linearGradient
       id="linearGradient28224">
      <stop
         style="stop-color:#ff0000;stop-opacity:0.50196081;"
         offset="0.0000000"
         id="stop28226" />
      <stop
         style="stop-color:#ff0000;stop-opacity:0;"
         offset="1"
         id="stop28228" />
    </linearGradient>
    <linearGradient
       id="linearGradient10494">
      <stop
         style="stop-color:#000000;stop-opacity:0.81632656;"
         offset="0.0000000"
         id="stop10496" />
      <stop
         style="stop-color:#ffffff;stop-opacity:0.50000000;"
         offset="1.0000000"
         id="stop10498" />
    </linearGradient>
    <linearGradient
       id="linearGradient8198">
      <stop
         style="stop-color:#acacac;stop-opacity:1.0000000;"
         offset="0.0000000"
         id="stop8200" />
      <stop
         style="stop-color:#f0f0f0;stop-opacity:1.0000000;"
         offset="0.090702951"
         id="stop16772" />
      <stop
         style="stop-color:#f5f5f5;stop-opacity:1.0000000;"
         offset="0.23809524"
         id="stop16770" />
      <stop
         style="stop-color:#7f7f7f;stop-opacity:1.0000000;"
         offset="0.71428573"
         id="stop16768" />
      <stop
         style="stop-color:#585858;stop-opacity:1.0000000;"
         offset="0.85714287"
         id="stop16774" />
      <stop
         style="stop-color:#292929;stop-opacity:1.0000000;"
         offset="1.0000000"
         id="stop8202" />
    </linearGradient>
    <linearGradient
       id="linearGradient5909">
      <stop
         style="stop-color:#0000ff;stop-opacity:1;"
         offset="0"
         id="stop5911" />
      <stop
         style="stop-color:#c0c0ff;stop-opacity:1.0000000;"
         offset="1.0000000"
         id="stop5913" />
    </linearGradient>
    <linearGradient
       id="linearGradient5901">
      <stop
         style="stop-color:#ff0000;stop-opacity:1;"
         offset="0"
         id="stop5903" />
      <stop
         style="stop-color:#ffc0c0;stop-opacity:1.0000000;"
         offset="1.0000000"
         id="stop5905" />
    </linearGradient>
    <linearGradient
       id="linearGradient5133">
      <stop
         style="stop-color:#ffc0c0;stop-opacity:1.0000000;"
         offset="0.0000000"
         id="stop5135" />
      <stop
         style="stop-color:#ffc0c0;stop-opacity:1.0000000;"
         offset="0.10000000"
         id="stop5141" />
      <stop
         style="stop-color:#ffffff;stop-opacity:0.49803922;"
         offset="0.44999999"
         id="stop22124" />
      <stop
         style="stop-color:#ffffff;stop-opacity:0.0000000;"
         offset="1.0000000"
         id="stop5137" />
    </linearGradient>
    <linearGradient
       y2="470.52103"
       x2="745.38953"
       y1="192.37326"
       x1="745.38953"
       spreadMethod="pad"
       gradientTransform="matrix(0.897432,0.000000,0.000000,1.114291,-151.1811,-153.3649)"
       gradientUnits="userSpaceOnUse"
       id="linearGradient7117"
       xlink:href="#linearGradient5909"
       inkscape:collect="always" />
    <radialGradient
       r="23.591057"
       fy="373.36386"
       fx="292.63516"
       cy="374.56851"
       cx="292.44815"
       gradientTransform="matrix(1.806153,0.000000,0.000000,0.553663,-151.1811,-153.3649)"
       gradientUnits="userSpaceOnUse"
       id="radialGradient7119"
       xlink:href="#linearGradient5133"
       inkscape:collect="always" />
    <linearGradient
       y2="201.02832"
       x2="488.13257"
       y1="460.67029"
       x1="488.13257"
       gradientTransform="matrix(0.892528,0.000000,0.000000,1.120413,-151.1811,-153.3649)"
       gradientUnits="userSpaceOnUse"
       id="linearGradient7121"
       xlink:href="#linearGradient5901"
       inkscape:collect="always" />
    <linearGradient
       y2="-949.88281"
       x2="322.25015"
       y1="-949.88318"
       x1="293.60416"
       gradientTransform="matrix(1.714148,0.000000,0.000000,0.583380,-901.1811,153.3649)"
       gradientUnits="userSpaceOnUse"
       id="linearGradient7123"
       xlink:href="#linearGradient8198"
       inkscape:collect="always" />
    <linearGradient
       y2="-424.27756"
       x2="664.39258"
       y1="-424.27768"
       x1="578.42529"
       gradientTransform="matrix(0.846552,0.000000,0.000000,1.181263,-901.1811,153.3649)"
       gradientUnits="userSpaceOnUse"
       id="linearGradient7125"
       xlink:href="#linearGradient8198"
       inkscape:collect="always" />
    <linearGradient
       y2="169.61557"
       x2="1522.0527"
       y1="169.61559"
       x1="1507.3250"
       gradientTransform="matrix(-0.332565,0.000000,0.000000,-3.006932,902.0681,865.8371)"
       gradientUnits="userSpaceOnUse"
       id="linearGradient7127"
       xlink:href="#linearGradient10494"
       inkscape:collect="always" />
    <linearGradient
       y2="169.61557"
       x2="1522.0527"
       y1="169.61559"
       x1="1507.3250"
       gradientTransform="matrix(-0.332565,0.000000,0.000000,-3.006932,887.0196,865.8371)"
       gradientUnits="userSpaceOnUse"
       id="linearGradient7129"
       xlink:href="#linearGradient10494"
       inkscape:collect="always" />
    <linearGradient
       y2="169.61557"
       x2="1522.0527"
       y1="169.61559"
       x1="1507.3250"
       gradientTransform="matrix(-0.332565,0.000000,0.000000,-3.006932,871.4033,865.8371)"
       gradientUnits="userSpaceOnUse"
       id="linearGradient7131"
       xlink:href="#linearGradient10494"
       inkscape:collect="always" />
    <linearGradient
       y2="169.61557"
       x2="1522.0527"
       y1="169.61559"
       x1="1507.3250"
       gradientTransform="matrix(-0.332565,0.000000,0.000000,-3.006932,855.5598,865.8371)"
       gradientUnits="userSpaceOnUse"
       id="linearGradient7133"
       xlink:href="#linearGradient10494"
       inkscape:collect="always" />
    <linearGradient
       y2="169.61557"
       x2="1522.0527"
       y1="169.61559"
       x1="1507.3250"
       gradientTransform="matrix(-0.332565,0.000000,0.000000,-3.006932,902.0681,865.8371)"
       gradientUnits="userSpaceOnUse"
       id="linearGradient7135"
       xlink:href="#linearGradient10494"
       inkscape:collect="always" />
    <linearGradient
       y2="169.61557"
       x2="1522.0527"
       y1="169.61559"
       x1="1507.3250"
       gradientTransform="matrix(-0.332565,0.000000,0.000000,-3.006932,887.0196,865.8371)"
       gradientUnits="userSpaceOnUse"
       id="linearGradient7137"
       xlink:href="#linearGradient10494"
       inkscape:collect="always" />
    <linearGradient
       y2="169.61557"
       x2="1522.0527"
       y1="169.61559"
       x1="1507.3250"
       gradientTransform="matrix(-0.332565,0.000000,0.000000,-3.006932,871.4033,865.8371)"
       gradientUnits="userSpaceOnUse"
       id="linearGradient7139"
       xlink:href="#linearGradient10494"
       inkscape:collect="always" />
    <linearGradient
       y2="169.61557"
       x2="1522.0527"
       y1="169.61559"
       x1="1507.3250"
       gradientTransform="matrix(-0.332565,0.000000,0.000000,-3.006932,855.5598,865.8371)"
       gradientUnits="userSpaceOnUse"
       id="linearGradient7141"
       xlink:href="#linearGradient10494"
       inkscape:collect="always" />
    <linearGradient
       y2="180.15645"
       x2="925.11318"
       y1="180.15645"
       x1="677.67363"
       gradientTransform="matrix(0.791829,0.000000,0.000000,1.262898,0.433091,0.000000)"
       gradientUnits="userSpaceOnUse"
       id="linearGradient7300"
       xlink:href="#linearGradient7022"
       inkscape:collect="always" />
    <linearGradient
       y2="301.78189"
       x2="460.01683"
       y1="301.78189"
       x1="211.55003"
       gradientTransform="matrix(0.792580,0.000000,0.000000,1.261702,-151.1354,-153.2394)"
       gradientUnits="userSpaceOnUse"
       id="linearGradient7305"
       xlink:href="#linearGradient28224"
       inkscape:collect="always" />
    <linearGradient
       y2="294.59750"
       x2="459.33173"
       y1="294.59750"
       x1="293.15518"
       spreadMethod="pad"
       gradientTransform="matrix(0.791829,0.000000,0.000000,1.262898,-150.7480,-144.5280)"
       gradientUnits="userSpaceOnUse"
       id="linearGradient7307"
       xlink:href="#linearGradient29906"
       inkscape:collect="always" />
    <linearGradient
       spreadMethod="pad"
       gradientUnits="userSpaceOnUse"
       y2="198.51474"
       x2="675.72113"
       y1="198.51482"
       x1="845.67987"
       gradientTransform="scale(0.791829,1.262898)"
       id="linearGradient8107"
       xlink:href="#linearGradient8101"
       inkscape:collect="always" />
  </defs>
  <sodipodi:namedview
     id="base"
     pagecolor="#ffffff"
     bordercolor="#666666"
     borderopacity="1.0"
     inkscape:pageopacity="0.0"
     inkscape:pageshadow="2"
     inkscape:zoom="1.4142136"
     inkscape:cx="420.52643"
     inkscape:cy="243.45816"
     inkscape:document-units="px"
     inkscape:current-layer="g7030"
     showgrid="false"
     inkscape:grid-points="true"
     inkscape:window-width="1920"
     inkscape:window-height="1017"
     inkscape:window-x="1272"
     inkscape:window-y="287"
     inkscape:window-maximized="1" />
  <metadata
     id="metadata4">
    <rdf:RDF>
      <cc:Work
         rdf:about="">
        <dc:format>image/svg+xml</dc:format>
        <dc:type
           rdf:resource="http://purl.org/dc/dcmitype/StillImage" />
        <dc:title></dc:title>
      </cc:Work>
    </rdf:RDF>
  </metadata>
  <g
     inkscape:label="Layer 1"
     inkscape:groupmode="layer"
     id="layer1">
    <path
       style="fill:url(#linearGradient7305);fill-opacity:1.0000000;fill-rule:evenodd;stroke:url(#linearGradient7307);stroke-width:1.0000000;stroke-linecap:butt;stroke-linejoin:miter;stroke-miterlimit:4.0000000;stroke-opacity:1.0000000"
       d="M 212.46495,305.39203 L 78.260960,305.39203 L 78.260960,383.26472 L 17.535020,227.51916 L 78.260960,71.773770 L 78.260960,149.64629 L 212.46495,149.64629"
       id="use27462"
       sodipodi:nodetypes="ccccccc" />
    <path
       style="stroke-opacity:1.0000000;stroke-miterlimit:4.0000000;stroke-linejoin:miter;stroke-linecap:butt;stroke-width:1.0000000;stroke:url(#linearGradient8107);fill-rule:evenodd;fill-opacity:1.0000000;fill:url(#linearGradient7300)"
       d="M 537.53505,305.39203 L 671.73904,305.39203 L 671.73904,383.26472 L 732.46498,227.51916 L 671.73904,71.773770 L 671.73904,149.64629 L 537.53505,149.64629"
       id="use6250"
       sodipodi:nodetypes="ccccccc" />
    <g
       transform="translate(0.000000,0.000000)"
       id="g7030">
      <path
         id="path1293"
         style="fill:url(#linearGradient7117);fill-opacity:1.0000000;fill-rule:evenodd;stroke:#000000;stroke-width:3.0000000;stroke-linecap:butt;stroke-linejoin:miter;stroke-miterlimit:4.0000000;stroke-opacity:1.0000000"
         d="M 387.21874,45.682340 C 383.14582,45.682340 379.07291,51.015720 374.99999,51.015720 C 370.92707,51.015720 370.92707,56.349030 374.99999,56.349030 C 379.07291,56.349030 383.14582,61.682340 387.21874,61.682340 L 627.21874,61.682340 C 630.21874,61.682340 631.46617,62.519300 632.49999,63.682340 C 633.53381,64.845380 634.21874,66.710120 634.21874,68.682340 C 634.21874,70.654560 633.53381,72.519300 632.49999,73.682340 C 631.46617,74.845380 630.21874,75.682340 627.21874,75.682340 L 612.21874,75.682340 C 605.21874,75.682340 598.96617,78.595390 594.99999,83.057340 C 591.03381,87.519290 589.21874,93.154560 589.21874,98.682340 C 589.21874,104.21012 591.03381,109.84539 594.99999,114.30734 C 598.96617,118.76929 605.21874,121.68234 612.21874,121.68234 L 627.21874,121.68234 C 630.21874,121.68234 631.46617,122.51930 632.49999,123.68234 C 633.53381,124.84538 634.21874,126.71012 634.21874,128.68234 C 634.21874,130.65456 633.53381,132.51930 632.49999,133.68234 C 631.46617,134.84538 630.21874,135.68234 627.21874,135.68234 L 612.21874,135.68234 C 605.21874,135.68234 598.96617,138.59539 594.99999,143.05734 C 591.03381,147.51929 589.21874,153.15456 589.21874,158.68234 C 589.21874,164.21012 591.03381,169.84539 594.99999,174.30734 C 598.96617,178.76929 605.21874,181.68234 612.21874,181.68234 L 627.21874,181.68234 C 630.21874,181.68234 631.46617,182.51930 632.49999,183.68234 C 633.53381,184.84538 634.21874,186.71012 634.21874,188.68234 C 634.21874,190.65456 633.53381,192.51930 632.49999,193.68234 C 631.46617,194.84538 630.21874,195.68234 627.21874,195.68234 L 612.21874,195.68234 C 605.21874,195.68234 598.96617,198.59539 594.99999,203.05734 C 591.03381,207.51929 589.21874,213.15456 589.21874,218.68234 C 589.21874,224.21012 591.03381,229.84539 594.99999,234.30734 C 598.96617,238.76929 605.21874,241.68234 612.21874,241.68234 L 627.21874,241.68234 C 630.21874,241.68234 631.46617,242.51930 632.49999,243.68234 C 633.53381,244.84538 634.21874,246.71012 634.21874,248.68234 C 634.21874,250.65456 633.53381,252.51930 632.49999,253.68234 C 631.46617,254.84538 630.21874,255.68234 627.21874,255.68234 L 612.21874,255.68234 C 605.21874,255.68234 598.96617,258.59539 594.99999,263.05734 C 591.03381,267.51929 589.21874,273.15456 589.21874,278.68234 C 589.21874,284.21012 591.03381,289.84539 594.99999,294.30734 C 598.96617,298.76929 605.21874,301.68234 612.21874,301.68234 L 627.21874,301.68234 C 630.21874,301.68234 631.46617,302.51930 632.49999,303.68234 C 633.53381,304.84538 634.21874,306.71012 634.21874,308.68234 C 634.21874,310.65456 633.53381,312.51930 632.49999,313.68234 C 631.46617,314.84538 630.21874,315.68234 627.21874,315.68234 L 612.21874,315.68234 C 605.21874,315.68234 598.96617,318.59539 594.99999,323.05734 C 591.03381,327.51929 589.21874,333.15456 589.21874,338.68234 C 589.21874,344.21012 591.03381,349.84539 594.99999,354.30734 C 598.96617,358.76929 605.21874,361.68234 612.21874,361.68234 L 627.21874,361.68234 C 630.21874,361.68234 631.46617,362.51930 632.49999,363.68234 C 633.53381,364.84538 634.21874,366.71012 634.21874,368.68234 C 634.21874,370.65456 633.53381,372.51930 632.49999,373.68234 C 631.46617,374.84538 630.21874,375.68234 627.21874,375.68234 L 387.21874,375.68234 L 387.21874,391.68234 L 627.21874,391.68234 C 634.21874,391.68234 640.47131,388.76929 644.43749,384.30734 C 648.40367,379.84539 650.21874,374.21012 650.21874,368.68234 C 650.21874,363.15456 648.40367,357.51929 644.43749,353.05734 C 640.47131,348.59539 634.21874,345.68234 627.21874,345.68234 L 612.21874,345.68234 C 609.21874,345.68234 607.97131,344.84538 606.93749,343.68234 C 605.90367,342.51930 605.21874,340.65456 605.21874,338.68234 C 605.21874,336.71012 605.90367,334.84538 606.93749,333.68234 C 607.97131,332.51930 609.21874,331.68234 612.21874,331.68234 L 627.21874,331.68234 C 634.21874,331.68234 640.47131,328.76929 644.43749,324.30734 C 648.40367,319.84539 650.21874,314.21012 650.21874,308.68234 C 650.21874,303.15456 648.40367,297.51929 644.43749,293.05734 C 640.47131,288.59539 634.21874,285.68234 627.21874,285.68234 L 612.21874,285.68234 C 609.21874,285.68234 607.97131,284.84538 606.93749,283.68234 C 605.90367,282.51930 605.21874,280.65456 605.21874,278.68234 C 605.21874,276.71012 605.90367,274.84538 606.93749,273.68234 C 607.97131,272.51930 609.21874,271.68234 612.21874,271.68234 L 627.21874,271.68234 C 634.21874,271.68234 640.47131,268.76929 644.43749,264.30734 C 648.40367,259.84539 650.21874,254.21012 650.21874,248.68234 C 650.21874,243.15456 648.40367,237.51929 644.43749,233.05734 C 640.47131,228.59539 634.21874,225.68234 627.21874,225.68234 L 612.21874,225.68234 C 609.21874,225.68234 607.97131,224.84538 606.93749,223.68234 C 605.90367,222.51930 605.21874,220.65456 605.21874,218.68234 C 605.21874,216.71012 605.90367,214.84538 606.93749,213.68234 C 607.97131,212.51930 609.21874,211.68234 612.21874,211.68234 L 627.21874,211.68234 C 634.21874,211.68234 640.47131,208.76929 644.43749,204.30734 C 648.40367,199.84539 650.21874,194.21012 650.21874,188.68234 C 650.21874,183.15456 648.40367,177.51929 644.43749,173.05734 C 640.47131,168.59539 634.21874,165.68234 627.21874,165.68234 L 612.21874,165.68234 C 609.21874,165.68234 607.97131,164.84538 606.93749,163.68234 C 605.90367,162.51930 605.21874,160.65456 605.21874,158.68234 C 605.21874,156.71012 605.90367,154.84538 606.93749,153.68234 C 607.97131,152.51930 609.21874,151.68234 612.21874,151.68234 L 627.21874,151.68234 C 634.21874,151.68234 640.47131,148.76929 644.43749,144.30734 C 648.40367,139.84539 650.21874,134.21012 650.21874,128.68234 C 650.21874,123.15456 648.40367,117.51929 644.43749,113.05734 C 640.47131,108.59539 634.21874,105.68234 627.21874,105.68234 L 612.21874,105.68234 C 609.21874,105.68234 607.97131,104.84538 606.93749,103.68234 C 605.90367,102.51930 605.21874,100.65456 605.21874,98.682340 C 605.21874,96.710120 605.90367,94.845380 606.93749,93.682340 C 607.97131,92.519300 609.21874,91.682340 612.21874,91.682340 L 627.21874,91.682340 C 634.21874,91.682340 640.47131,88.769290 644.43749,84.307340 C 648.40367,79.845390 650.21874,74.210120 650.21874,68.682340 C 650.21874,63.154560 648.40367,57.519290 644.43749,53.057340 C 640.47131,48.595390 634.21874,45.682340 627.21874,45.682340 L 387.21874,45.682340 z "
         sodipodi:nodetypes="ccccccccccccccccccccccccccccccccccccccccccccccccccccccccccccccccccccccccccccccccccccccccccccccccccccccccccccccccccccc" />
      <path
         id="use4371"
         style="fill:url(#radialGradient7119);fill-opacity:1.0000000;fill-rule:evenodd;stroke:#000000;stroke-width:3.0000000;stroke-linecap:butt;stroke-linejoin:miter;stroke-miterlimit:4.0000000;stroke-opacity:1.0000000"
         d="M 629.00786,45.682340 L 387.21874,45.682340 C 383.14582,45.682340 379.07291,51.018340 374.99999,51.018340 C 370.92707,51.018340 370.92707,56.354340 374.99999,56.354340 C 379.07291,56.354340 383.14582,61.690340 387.21874,61.690340 L 629.00786,61.690330"
         sodipodi:nodetypes="cccccc" />
      <path
         id="use3609"
         style="fill:url(#linearGradient7121);fill-opacity:1.0000000;fill-rule:evenodd;stroke:#000000;stroke-width:3.0000000;stroke-linecap:butt;stroke-linejoin:miter;stroke-miterlimit:4.0000000;stroke-opacity:1.0000000"
         d="M 374.99999,51.015720 C 370.92707,51.015720 366.85416,45.682400 362.78124,45.682400 L 122.78124,45.682340 C 115.78124,45.682340 109.52867,48.595390 105.56249,53.057340 C 101.59631,57.519290 99.781240,63.154560 99.781240,68.682340 C 99.781240,74.210120 101.59631,79.845390 105.56249,84.307340 C 109.52867,88.769290 115.78124,91.682340 122.78124,91.682340 L 137.78124,91.682340 C 140.78124,91.682340 142.02867,92.519300 143.06249,93.682340 C 144.09631,94.845380 144.78124,96.710120 144.78124,98.682340 C 144.78124,100.65456 144.09631,102.51930 143.06249,103.68234 C 142.02867,104.84538 140.78124,105.68234 137.78124,105.68234 L 122.78124,105.68234 C 115.78124,105.68234 109.52867,108.59539 105.56249,113.05734 C 101.59631,117.51929 99.781240,123.15456 99.781240,128.68234 C 99.781240,134.21012 101.59631,139.84539 105.56249,144.30734 C 109.52867,148.76929 115.78124,151.68234 122.78124,151.68234 L 137.78124,151.68234 C 140.78124,151.68234 142.02867,152.51930 143.06249,153.68234 C 144.09631,154.84538 144.78124,156.71012 144.78124,158.68234 C 144.78124,160.65456 144.09631,162.51930 143.06249,163.68234 C 142.02867,164.84538 140.78124,165.68234 137.78124,165.68234 L 122.78124,165.68234 C 115.78124,165.68234 109.52867,168.59539 105.56249,173.05734 C 101.59631,177.51929 99.781240,183.15456 99.781240,188.68234 C 99.781240,194.21012 101.59631,199.84539 105.56249,204.30734 C 109.52867,208.76929 115.78124,211.68234 122.78124,211.68234 L 137.78124,211.68234 C 140.78124,211.68234 142.02867,212.51930 143.06249,213.68234 C 144.09631,214.84538 144.78124,216.71012 144.78124,218.68234 C 144.78124,220.65456 144.09631,222.51930 143.06249,223.68234 C 142.02867,224.84538 140.78124,225.68234 137.78124,225.68234 L 122.78124,225.68234 C 115.78124,225.68234 109.52867,228.59539 105.56249,233.05734 C 101.59631,237.51929 99.781240,243.15456 99.781240,248.68234 C 99.781240,254.21012 101.59631,259.84539 105.56249,264.30734 C 109.52867,268.76929 115.78124,271.68234 122.78124,271.68234 L 137.78124,271.68234 C 140.78124,271.68234 142.02867,272.51930 143.06249,273.68234 C 144.09631,274.84538 144.78124,276.71012 144.78124,278.68234 C 144.78124,280.65456 144.09631,282.51930 143.06249,283.68234 C 142.02867,284.84538 140.78124,285.68234 137.78124,285.68234 L 122.78124,285.68234 C 115.78124,285.68234 109.52867,288.59539 105.56249,293.05734 C 101.59631,297.51929 99.781240,303.15456 99.781240,308.68234 C 99.781240,314.21012 101.59631,319.84539 105.56249,324.30734 C 109.52867,328.76929 115.78124,331.68234 122.78124,331.68234 L 137.78124,331.68234 C 140.78124,331.68234 142.02867,332.51930 143.06249,333.68234 C 144.09631,334.84538 144.78124,336.71012 144.78124,338.68234 C 144.78124,340.65456 144.09631,342.51930 143.06249,343.68234 C 142.02867,344.84538 140.78124,345.68234 137.78124,345.68234 L 122.78124,345.68234 C 115.78124,345.68234 109.52867,348.59539 105.56249,353.05734 C 101.59631,357.51929 99.781240,363.15456 99.781240,368.68234 C 99.781240,374.21012 101.59631,379.84539 105.56249,384.30734 C 109.52867,388.76929 115.78124,391.68234 122.78124,391.68234 L 362.78124,391.68234 L 362.78124,375.68234 L 122.78124,375.68234 C 119.78124,375.68234 118.53381,374.84538 117.49999,373.68234 C 116.46617,372.51930 115.78124,370.65456 115.78124,368.68234 C 115.78124,366.71012 116.46617,364.84538 117.49999,363.68234 C 118.53381,362.51930 119.78124,361.68234 122.78124,361.68234 L 137.78124,361.68234 C 144.78124,361.68234 151.03381,358.76929 154.99999,354.30734 C 158.96617,349.84539 160.78124,344.21012 160.78124,338.68234 C 160.78124,333.15456 158.96617,327.51929 154.99999,323.05734 C 151.03381,318.59539 144.78124,315.68234 137.78124,315.68234 L 122.78124,315.68234 C 119.78124,315.68234 118.53381,314.84538 117.49999,313.68234 C 116.46617,312.51930 115.78124,310.65456 115.78124,308.68234 C 115.78124,306.71012 116.46617,304.84538 117.49999,303.68234 C 118.53381,302.51930 119.78124,301.68234 122.78124,301.68234 L 137.78124,301.68234 C 144.78124,301.68234 151.03381,298.76929 154.99999,294.30734 C 158.96617,289.84539 160.78124,284.21012 160.78124,278.68234 C 160.78124,273.15456 158.96617,267.51929 154.99999,263.05734 C 151.03381,258.59539 144.78124,255.68234 137.78124,255.68234 L 122.78124,255.68234 C 119.78124,255.68234 118.53381,254.84538 117.49999,253.68234 C 116.46617,252.51930 115.78124,250.65456 115.78124,248.68234 C 115.78124,246.71012 116.46617,244.84538 117.49999,243.68234 C 118.53381,242.51930 119.78124,241.68234 122.78124,241.68234 L 137.78124,241.68234 C 144.78124,241.68234 151.03381,238.76929 154.99999,234.30734 C 158.96617,229.84539 160.78124,224.21012 160.78124,218.68234 C 160.78124,213.15456 158.96617,207.51929 154.99999,203.05734 C 151.03381,198.59539 144.78124,195.68234 137.78124,195.68234 L 122.78124,195.68234 C 119.78124,195.68234 118.53381,194.84538 117.49999,193.68234 C 116.46617,192.51930 115.78124,190.65456 115.78124,188.68234 C 115.78124,186.71012 116.46617,184.84538 117.49999,183.68234 C 118.53381,182.51930 119.78124,181.68234 122.78124,181.68234 L 137.78124,181.68234 C 144.78124,181.68234 151.03381,178.76929 154.99999,174.30734 C 158.96617,169.84539 160.78124,164.21012 160.78124,158.68234 C 160.78124,153.15456 158.96617,147.51929 154.99999,143.05734 C 151.03381,138.59539 144.78124,135.68234 137.78124,135.68234 L 122.78124,135.68234 C 119.78124,135.68234 118.53381,134.84538 117.49999,133.68234 C 116.46617,132.51930 115.78124,130.65456 115.78124,128.68234 C 115.78124,126.71012 116.46617,124.84538 117.49999,123.68234 C 118.53381,122.51930 119.78124,121.68234 122.78124,121.68234 L 137.78124,121.68234 C 144.78124,121.68234 151.03381,118.76929 154.99999,114.30734 C 158.96617,109.84539 160.78124,104.21012 160.78124,98.682340 C 160.78124,93.154560 158.96617,87.519290 154.99999,83.057340 C 151.03381,78.595390 144.78124,75.682340 137.78124,75.682340 L 122.78124,75.682340 C 119.78124,75.682340 118.53381,74.845380 117.49999,73.682340 C 116.46617,72.519300 115.78124,70.654560 115.78124,68.682340 C 115.78124,66.710120 116.46617,64.845380 117.49999,63.682340 C 118.53381,62.519300 119.78124,61.682340 122.78124,61.682340 L 362.78124,61.682340 C 366.85416,61.682340 370.92707,56.349030 374.99999,56.349030"
         sodipodi:nodetypes="cccccccccccccccccccccccccccccccccccccccccccccccccccccccccccccccccccccccccccccccccccccccccccccccccccccccccccccccccccc" />
      <rect
         style="fill:url(#linearGradient7123);fill-opacity:1.0000000;stroke:#000000;stroke-width:3.0000000;stroke-miterlimit:4.0000000;stroke-opacity:1.0000000"
         id="use8210"
         width="50.007969"
         height="17.156130"
         x="-400.00400"
         y="-409.35611"
         transform="scale(-1.000000,-1.000000)" />
      <rect
         style="fill:url(#linearGradient7125);fill-opacity:1.0000000;stroke:#000000;stroke-width:3.0000000;stroke-miterlimit:4.0000000;stroke-opacity:1.0000000"
         id="rect7438"
         width="70.533958"
         height="99.212601"
         x="-410.26700"
         y="-397.67764"
         transform="scale(-1.000000,-1.000000)" />
      <path
         style="fill:none;fill-opacity:0.75000000;fill-rule:evenodd;stroke:url(#linearGradient7127);stroke-width:8.0000000;stroke-linecap:round;stroke-linejoin:miter;stroke-miterlimit:4.0000000;stroke-opacity:0.20676692"
         d="M 398.25418,386.05118 L 398.25418,321.71801"
         id="path8976" />
      <path
         style="fill:none;fill-opacity:0.75000000;fill-rule:evenodd;stroke:url(#linearGradient7129);stroke-width:8.0000000;stroke-linecap:round;stroke-linejoin:miter;stroke-miterlimit:4.0000000;stroke-opacity:0.20676692"
         d="M 383.20568,386.05118 L 383.20568,321.71801"
         id="use10502" />
      <path
         style="fill:none;fill-opacity:0.75000000;fill-rule:evenodd;stroke:url(#linearGradient7131);stroke-width:8.0000000;stroke-linecap:round;stroke-linejoin:miter;stroke-miterlimit:4.0000000;stroke-opacity:0.20676692"
         d="M 367.58932,386.05118 L 367.58932,321.71801"
         id="use10511" />
      <path
         style="fill:none;fill-opacity:0.75000000;fill-rule:evenodd;stroke:url(#linearGradient7133);stroke-width:8.0000000;stroke-linecap:round;stroke-linejoin:miter;stroke-miterlimit:4.0000000;stroke-opacity:0.20676692"
         d="M 351.74582,386.05118 L 351.74582,321.71801"
         id="use10513" />
      <path
         style="fill:none;fill-opacity:0.75000000;fill-rule:evenodd;stroke:url(#linearGradient7135);stroke-width:8.0000000;stroke-linecap:round;stroke-linejoin:miter;stroke-miterlimit:4.0000000;stroke-opacity:0.20676692"
         d="M 398.25418,386.05118 L 398.25418,321.71801"
         id="path10545" />
      <path
         style="fill:none;fill-opacity:0.75000000;fill-rule:evenodd;stroke:url(#linearGradient7137);stroke-width:8.0000000;stroke-linecap:round;stroke-linejoin:miter;stroke-miterlimit:4.0000000;stroke-opacity:0.20676692"
         d="M 383.20568,386.05118 L 383.20568,321.71801"
         id="path10547" />
      <path
         style="fill:none;fill-opacity:0.75000000;fill-rule:evenodd;stroke:url(#linearGradient7139);stroke-width:8.0000000;stroke-linecap:round;stroke-linejoin:miter;stroke-miterlimit:4.0000000;stroke-opacity:0.20676692"
         d="M 367.58932,386.05118 L 367.58932,321.71801"
         id="path10549" />
      <path
         style="fill:none;fill-opacity:0.75000000;fill-rule:evenodd;stroke:url(#linearGradient7141);stroke-width:8.0000000;stroke-linecap:round;stroke-linejoin:miter;stroke-miterlimit:4.0000000;stroke-opacity:0.20676692"
         d="M 351.74582,386.05118 L 351.74582,321.71801"
         id="path10551" />
      <rect
         style="fill:#000000;fill-opacity:0.50199205;stroke:#000000;stroke-width:3.3650107;stroke-linecap:round;stroke-miterlimit:4.0000000;stroke-opacity:0.20676692"
         id="rect10595"
         width="29.072718"
         height="6.2007875"
         x="345.84756"
         y="305.49338" />
      <rect
         style="fill:#404040;fill-opacity:0.50199205;stroke:none;stroke-width:4.0000000;stroke-linecap:round;stroke-miterlimit:4.0000000;stroke-opacity:0.20676692"
         id="rect11357"
         width="50.042294"
         height="4.4810376"
         x="349.85947"
         y="397.59689" />
      <path
         style="fill:#ff0000;fill-opacity:1.0000000;fill-rule:evenodd;stroke:#000000;stroke-width:2.0000000;stroke-linecap:butt;stroke-linejoin:miter;stroke-miterlimit:4.0000000;stroke-opacity:1.0000000"
         d="M 322.97067,346.86134 L 322.97067,355.95778 L 282.63659,355.95778 L 282.63659,360.50600 L 271.23453,351.40956 L 282.63659,342.31314 L 282.63659,346.86134 L 322.97067,346.86134 z "
         id="use18294"
         sodipodi:nodetypes="cccccccc" />
      <path
         style="fill:#8080ff;fill-opacity:1.0000000;fill-rule:evenodd;stroke:#000000;stroke-width:2.0000000;stroke-linecap:butt;stroke-linejoin:miter;stroke-miterlimit:4.0000000;stroke-opacity:1.0000000"
         d="M 478.76545,346.86135 L 478.76545,355.95779 L 438.43137,355.95779 L 438.43137,360.50600 L 427.02931,351.40957 L 438.43137,342.31315 L 438.43137,346.86135 L 478.76545,346.86135 z "
         id="use19828"
         sodipodi:nodetypes="cccccccc" />
      <path
         style="fill:#8080ff;fill-opacity:1.0000000;fill-rule:evenodd;stroke:#000000;stroke-width:2.0000000;stroke-linecap:butt;stroke-linejoin:miter;stroke-miterlimit:4.0000000;stroke-opacity:1.0000000"
         d="M 427.02913,79.452340 L 427.02913,88.548780 L 467.36321,88.548780 L 467.36321,93.097000 L 478.76527,84.000560 L 467.36321,74.904140 L 467.36321,79.452340 L 427.02913,79.452340 z "
         id="path26698"
         sodipodi:nodetypes="cccccccc" />
      <path
         style="fill:#ff0000;fill-opacity:1.0000000;fill-rule:evenodd;stroke:#000000;stroke-width:2.0000000;stroke-linecap:butt;stroke-linejoin:miter;stroke-miterlimit:4.0000000;stroke-opacity:1.0000000"
         d="M 271.23435,79.452350 L 271.23435,88.548790 L 311.56843,88.548790 L 311.56843,93.097000 L 322.97049,84.000570 L 311.56843,74.904150 L 311.56843,79.452350 L 271.23435,79.452350 z "
         id="path26700"
         sodipodi:nodetypes="cccccccc" />
      <text
         xml:space="preserve"
         style="font-size:56;font-style:normal;font-variant:normal;font-weight:normal;font-stretch:normal;fill:#000000;fill-opacity:1;stroke:none;stroke-width:1px;stroke-linecap:butt;stroke-linejoin:miter;stroke-opacity:1;font-family:'DejaVu Serif';text-anchor:start;writing-mode:lr-tb;-inkscape-font-specification:'DejaVu Serif';"
         x="535.04907"
         y="246.89523"
         id="text29922"
         sodipodi:linespacing="100%"><tspan
           x="535.04907"
           y="246.89523"
           sodipodi:role="line"
           id="tspan29975"
           style="font-size:50px">3</tspan></text>
      <text
         xml:space="preserve"
         style="font-size:56;font-style:normal;font-variant:normal;font-weight:normal;font-stretch:normal;fill:#000000;fill-opacity:1;stroke:none;stroke-width:1px;stroke-linecap:butt;stroke-linejoin:miter;stroke-opacity:1;font-family:'DejaVu Serif';text-anchor:start;writing-mode:lr-tb;-inkscape-font-specification:'DejaVu Serif';"
         x="179.89493"
         y="245.27124"
         id="text29939"
         sodipodi:linespacing="100%"><tspan
           x="179.89493"
           y="245.27124"
           sodipodi:role="line"
           id="tspan29971"
           style="font-size:50px">1</tspan></text>
      <text
         xml:space="preserve"
         style="font-size:56;font-style:normal;font-variant:normal;font-weight:normal;font-stretch:normal;fill:#000000;fill-opacity:1;stroke:none;stroke-width:1px;stroke-linecap:butt;stroke-linejoin:miter;stroke-opacity:1;font-family:'DejaVu Serif';text-anchor:start;writing-mode:lr-tb;-inkscape-font-specification:'DejaVu Serif';"
         x="359.34799"
         y="369.76828"
         id="text29935"
         sodipodi:linespacing="100%"><tspan
           x="359.34799"
           y="369.76828"
           sodipodi:role="line"
           id="tspan29969"
           style="font-size:50px">4</tspan></text>
      <text
         xml:space="preserve"
         style="font-size:56;font-style:normal;font-variant:normal;font-weight:normal;font-stretch:normal;fill:#000000;fill-opacity:1;stroke:none;stroke-width:1px;stroke-linecap:butt;stroke-linejoin:miter;stroke-opacity:1;font-family:'DejaVu Serif';text-anchor:start;writing-mode:lr-tb;-inkscape-font-specification:'DejaVu Serif';"
         x="359.15198"
         y="128.61423"
         id="text29943"
         sodipodi:linespacing="100%"><tspan
           x="359.15198"
           y="128.61423"
           sodipodi:role="line"
           id="tspan29967"
           style="font-size:50px">2</tspan></text>
    </g>
  </g>
</svg>
