<?xml version="1.0" encoding="utf-8"?>
<!-- Generator: Adobe Illustrator 16.0.0, SVG Export Plug-In . SVG Version: 6.00 Build 0)  -->
<!DOCTYPE svg PUBLIC "-//W3C//DTD SVG 1.0//EN" "http://www.w3.org/TR/2001/REC-SVG-20010904/DTD/svg10.dtd">
<svg version="1.0" xmlns="http://www.w3.org/2000/svg" xmlns:xlink="http://www.w3.org/1999/xlink" x="0px" y="0px" width="600px"
	 height="450px" viewBox="0 0 600 450" enable-background="new 0 0 600 450" xml:space="preserve">
<g id="Views">
	<g id="Fills">
		<polygon id="Madrid" opacity="0.5" fill="#CCCCFF" points="192.423,232.375 0.046,65.146 0,450 234.708,449.913 		"/>
		<polygon id="Goldstone" opacity="0.5" fill="#FFCCCC" points="221,182.877 0,107.402 0,0 600,0 600,52.5 		"/>
		<polygon id="Canberra" opacity="0.5" fill="#FFFF99" points="249.577,232.374 516.208,-0.031 600,0 600,450 207.175,449.884 		"/>
	</g>
	<g id="Goldstone_1_">
		<polyline fill="none" stroke="#336699" stroke-width="2" points="600.025,52.99 221,183.5 -0.016,107.397 		"/>
	</g>
	<g id="Canberra_1_">
		<polyline fill="none" stroke="#336699" stroke-width="2" points="207.175,449.884 249.577,231.748 516.208,-0.031 		"/>
	</g>
	<g id="Madrid_1_">
		<polyline fill="none" stroke="#336699" stroke-width="2" points="234.708,449.913 192.423,232.375 0.046,65.146 		"/>
	</g>
</g>
<g id="Earth_x26_Radius">
	<g id="Geosynchronous">
		<circle fill="none" stroke="#000000" stroke-width="3" stroke-dasharray="2.9938,2.9938" cx="221" cy="216" r="212.5"/>
	</g>
	<g id="_x33_0000km">
		<circle fill="none" stroke="#000000" stroke-width="3" stroke-dasharray="12.0864,8.0576" cx="221" cy="216" r="163.5"/>
	</g>
	<circle id="LEO" fill="none" stroke="#000000" cx="221" cy="216" r="37.5"/>
	<circle id="Earth" fill="#99CC66" stroke="#009966" stroke-width="2" cx="221" cy="216" r="32.5"/>
</g>
<g id="Text_x26_Guide">
	<text transform="matrix(1 0 0 1 175.6196 115.0552)"><tspan x="0" y="0" font-family="'LucidaSans'" font-size="18">Goldstone</tspan><tspan x="25.172" y="21.6" font-family="'LucidaSans'" font-size="18">view</tspan></text>
	<text transform="matrix(1 0 0 1 99.6646 255.0547)"><tspan x="0" y="0" font-family="'LucidaSans'" font-size="18">Madrid</tspan><tspan x="11.127" y="21.6" font-family="'LucidaSans'" font-size="18">view</tspan></text>
	<text transform="matrix(1 0 0 1 270.2031 255.0557)"><tspan x="0" y="0" font-family="'LucidaSans'" font-size="18">Canberra</tspan><tspan x="20.588" y="21.6" font-family="'LucidaSans'" font-size="18">view</tspan></text>
	<text transform="matrix(1 0 0 1 206.0117 219.9033)" font-family="'LucidaSans'" font-size="12">Earth</text>
	<polygon id="LEO_1_" points="236.589,251.565 239.707,264.614 241.129,258.53 361.877,402.435 363.411,401.151 242.663,257.246 
		248.899,256.901 	"/>
	<polygon id="_x33_0000_1_" points="360.07,310.07 364.314,322.797 365.202,316.609 414.518,365.93 415.93,364.52 366.615,315.199 
		372.799,314.313 	"/>
	<polygon id="Geo" points="414.493,319.896 423.717,329.639 421.907,323.656 434.824,328.359 435.507,326.484 422.592,321.78 
		427.821,318.361 	"/>
	<text transform="matrix(1 0 0 1 363.9424 414.5537)" font-family="'LucidaSans'" font-size="14">Low Earth Orbit (600 km)</text>
	<text transform="matrix(1 0 0 1 419.1445 374.5537)" font-family="'LucidaSans'" font-size="14">30,000 km from Earth</text>
	<text transform="matrix(1 0 0 1 440.0957 334.5537)" font-family="'LucidaSans'" font-size="14">Geosynchronous orbit</text>
	<text transform="matrix(1 0 0 1 467.4941 158.7539)"><tspan x="0" y="0" font-family="'LucidaSans'" font-size="14">Moon is 10×</tspan><tspan x="0" y="16.8" font-family="'LucidaSans'" font-size="14">further away</tspan><tspan x="0" y="33.6" font-family="'LucidaSans'" font-size="14">than GEO</tspan></text>
	<polygon id="MoonArrow" fill="#6699CC" stroke="#336699" stroke-width="2" stroke-miterlimit="10" points="556,223.003 
		536,203.001 536,214 468,214 468,232.001 536,232.001 536,243.001 	"/>
</g>
</svg>
